<svg version="1.1" id="Layer_1" xmlns="http://www.w3.org/2000/svg" xmlns:xlink="http://www.w3.org/1999/xlink" x="0px" y="0px" viewBox="0 0 257.3 121.7" style="enable-background:new 0 0 257.3 121.7;" xml:space="preserve">
 <style type="text/css">
  .st0{fill-rule:evenodd;clip-rule:evenodd;fill:#007DC4;}
	.st1{fill-rule:evenodd;clip-rule:evenodd;fill:#231F20;}
	.st2{fill-rule:evenodd;clip-rule:evenodd;fill:#FFFFFF;}
	.st3{fill-rule:evenodd;clip-rule:evenodd;fill:#EE4023;}
	.st4{fill-rule:evenodd;clip-rule:evenodd;fill:#0E7DC1;}
	.st5{fill-rule:evenodd;clip-rule:evenodd;fill:#F48120;}
 </style>
 <g>
  <polygon class="st0" points="257.3,96.8 0,96.8 0,49.3 171.8,49.3 214.5,62.3 257.3,49.3 257.3,49.3 	">
  </polygon>
  <path class="st1" d="M20.6,111.1l-1.4,5.1c0.3,0,0.6,0.1,0.8,0.1c0.3,0,0.7,0,1.1-0.1l-0.1,0.5c-0.5,0.1-0.8,0.1-1.1,0.1
		c-0.3,0-0.7,0-1.2-0.1c-0.5,0-0.8-0.1-1.1-0.1c-0.5,0-1.2,0.1-1.9,0.2l0.2-0.5c0.7-0.2,1.2-0.4,1.5-0.5c0.3-0.3,0.6-0.8,0.8-1.5
		l1.4-5.4c0.2-0.7,0.3-1.1,0.3-1.2c0-0.1,0-0.2-0.1-0.3c-0.1-0.1-0.3-0.1-0.5-0.1l0.1-0.5c0.7,0,1.5-0.1,2.5-0.4
		c-0.1,0.2-0.2,0.6-0.3,1.1l-0.8,2.8c0.3,0.1,0.6,0.1,0.8,0.1c0.9,0,1.6-0.3,2.2-0.8c0.6-0.6,0.9-1.2,0.9-2c0-0.6-0.2-1.1-0.7-1.5
		c-0.5-0.4-1.2-0.6-2-0.6c-1.1,0-2.1,0.2-3.1,0.7c-1,0.5-1.8,1.1-2.3,1.8c-0.5,0.7-0.8,1.5-0.8,2.3c0,0.6,0.3,1.1,0.8,1.5
		c0.3,0.2,0.4,0.4,0.5,0.5c0.1,0.1,0.1,0.2,0.1,0.3c0,0.1-0.1,0.3-0.2,0.4c-0.1,0.1-0.2,0.1-0.4,0.1c-0.4,0-0.7-0.2-1-0.6
		c-0.4-0.5-0.6-1.2-0.6-1.9c0-1,0.3-1.9,0.9-2.8c0.6-0.9,1.5-1.6,2.6-2.1c1.2-0.6,2.4-0.8,3.7-0.8c1.2,0,2.2,0.2,3,0.6
		c0.8,0.4,1.2,1.1,1.2,1.9c0,0.8-0.4,1.5-1.1,2.2c-0.7,0.7-1.7,1.1-3,1.3c0.3,0.6,0.5,1,0.6,1.2c0.1,0.3,0.4,0.9,0.7,1.8
		c0.7,1.9,1.4,3.3,2.1,4.1c0.5,0.6,1.1,0.9,1.8,0.9c0.7,0,1.1-0.3,1.3-0.8c0.1-0.4,0.2-0.6,0.3-0.6c0.1-0.1,0.3-0.2,0.4-0.2
		c0.2,0,0.3,0.1,0.4,0.2c0.1,0.1,0.2,0.2,0.2,0.4c0,0.4-0.2,0.8-0.7,1.1c-0.5,0.4-1.1,0.5-1.8,0.5c-0.7,0-1.3-0.1-1.9-0.5
		c-0.6-0.3-1.2-0.8-1.8-1.5c-0.6-0.7-1.1-1.5-1.5-2.5c-0.2-0.5-0.5-1.4-0.9-2.6c-0.2-0.8-0.4-1.3-0.5-1.4l-0.3,0
		C20.8,111.1,20.7,111.1,20.6,111.1">
  </path>
  <path class="st1" d="M33.3,114.2l0.3,0.4c-1.7,1.5-3.1,2.2-4.3,2.2c-0.5,0-0.9-0.2-1.1-0.5c-0.3-0.3-0.4-0.8-0.4-1.5
		c0-1.4,0.4-2.7,1.3-4.1c1-1.5,2.2-2.3,3.6-2.3c0.5,0,0.9,0.1,1.1,0.3c0.3,0.2,0.4,0.5,0.4,0.9c0,0.4-0.2,0.8-0.5,1.2
		c-0.3,0.4-0.9,0.8-1.6,1.3c-0.4,0.2-1.2,0.6-2.5,1.1c-0.1,0.3-0.1,0.7-0.1,1c0,0.5,0.1,0.8,0.2,1c0.2,0.2,0.4,0.3,0.7,0.3
		c0.3,0,0.6-0.1,0.9-0.2C31.7,115.2,32.4,114.8,33.3,114.2 M29.7,112.8c1.1-0.5,1.9-1,2.5-1.5c0.4-0.4,0.6-0.7,0.6-1.1
		c0-0.3-0.1-0.5-0.2-0.7c-0.2-0.2-0.4-0.2-0.6-0.2c-0.3,0-0.5,0.1-0.7,0.3c-0.3,0.2-0.6,0.6-0.8,1.1C30,111.4,29.8,112.1,29.7,112.8
		">
  </path>
  <path class="st1" d="M39.8,114.3l0.3,0.3c-0.5,0.6-1.2,1.1-1.9,1.5c-0.7,0.5-1.3,0.7-1.8,0.7c-0.2,0-0.4-0.1-0.5-0.2
		c-0.1-0.2-0.2-0.4-0.2-0.6c0-0.5,0.2-1.6,0.6-3.2l1.1-4.2c0.4-1.5,0.7-2.6,1-3.1c0.4-0.8,1-1.4,1.8-1.8c0.8-0.4,1.6-0.7,2.5-0.7
		c0.3,0,0.5,0.1,0.7,0.2c0.2,0.1,0.3,0.3,0.3,0.5c0,0.2-0.1,0.4-0.2,0.5c-0.2,0.1-0.4,0.2-0.7,0.2c-0.2,0-0.5,0-0.9-0.1
		c-0.3-0.1-0.6-0.1-0.9-0.1c-0.3,0-0.5,0.1-0.6,0.2c-0.2,0.2-0.4,0.5-0.5,1c-0.2,0.5-0.4,1.5-0.8,2.9l-1,4c-0.5,2-0.8,3.1-0.8,3.2
		c0,0.2,0.1,0.3,0.2,0.3c0.1,0,0.4-0.1,0.7-0.2C38.7,115.3,39.2,114.8,39.8,114.3">
  </path>
  <path class="st1" d="M48,108.4l0.7-0.1l-0.8,2.4c-0.3,1-0.6,2.1-0.9,3.4c-0.2,0.7-0.2,1.1-0.2,1.3c0,0.2,0.1,0.3,0.3,0.3
		c0.1,0,0.3-0.1,0.5-0.2c0.4-0.2,0.8-0.5,1.2-0.9l0.3,0.4c-0.8,0.7-1.3,1.1-1.5,1.2c-0.4,0.3-0.9,0.5-1.2,0.6
		c-0.3,0.1-0.5,0.1-0.8,0.1c-0.2,0-0.3,0-0.4-0.1c-0.1-0.1-0.1-0.2-0.1-0.3c0-0.1,0-0.2,0.1-0.4l0.4-1.3c-0.6,0.7-1.3,1.2-2.1,1.7
		c-0.5,0.3-1,0.4-1.4,0.4c-0.4,0-0.7-0.1-0.9-0.4c-0.3-0.4-0.4-0.8-0.4-1.4c0-0.7,0.2-1.4,0.6-2.3c0.4-0.8,0.9-1.6,1.6-2.3
		c0.6-0.7,1.3-1.2,2-1.5c0.6-0.2,1.3-0.4,2.1-0.4c0.2,0,0.4,0,0.7,0L48,108.4z M46.8,109.8c-0.4-0.1-0.7-0.1-0.9-0.1
		c-0.6,0-1.2,0.2-1.6,0.5c-0.5,0.3-0.9,0.9-1.3,1.7c-0.4,0.8-0.6,1.7-0.6,2.5c0,0.4,0.1,0.7,0.2,0.9c0.2,0.2,0.4,0.3,0.6,0.3
		c0.5,0,1-0.2,1.5-0.7c0.5-0.5,0.9-1.2,1.2-2.1L46.8,109.8z">
  </path>
  <path class="st1" d="M53.2,107l1.6-0.6l-0.7,2.7h2.1l-0.2,0.7H54l-0.9,3.2c-0.3,1-0.4,1.6-0.4,2c0,0.2,0,0.3,0.1,0.4
		c0.1,0.1,0.2,0.1,0.3,0.1c0.2,0,0.5-0.1,1-0.4c0.6-0.3,1.1-0.7,1.6-1.1l0.4,0.4c-1.5,1.1-2.5,1.7-3,1.9c-0.5,0.2-0.9,0.4-1.2,0.4
		c-0.3,0-0.5-0.1-0.6-0.3c-0.1-0.2-0.2-0.5-0.2-0.9c0-0.5,0.1-1.2,0.4-2.1l1-3.8h-1.7l0.2-0.7h1.7L53.2,107z">
  </path>
  <path class="st1" d="M57.9,110.8l-0.4-0.3c0.7-0.7,1.3-1.2,1.9-1.5c0.6-0.3,1-0.4,1.4-0.4c0.2,0,0.4,0,0.5,0.1
		c0.1,0.1,0.2,0.2,0.2,0.4c0,0.2-0.2,1-0.7,2.4c-0.7,2.3-1.1,3.7-1.1,4.1c0,0.1,0,0.2,0.1,0.2c0,0.1,0.1,0.1,0.2,0.1
		c0.2,0,0.8-0.4,1.7-1.2L62,115c-0.9,0.8-1.6,1.4-2,1.6c-0.4,0.2-0.8,0.3-1.1,0.3c-0.2,0-0.4-0.1-0.6-0.2c-0.1-0.1-0.2-0.3-0.2-0.6
		c0-0.8,0.5-2.8,1.5-5.9c0-0.1,0.1-0.3,0.1-0.4c0-0.1-0.1-0.2-0.2-0.2c-0.1,0-0.3,0.1-0.5,0.2C58.9,109.9,58.5,110.2,57.9,110.8
		 M61.9,104.4c0.2,0,0.4,0.1,0.5,0.2c0.1,0.1,0.2,0.3,0.2,0.5c0,0.3-0.1,0.5-0.3,0.7c-0.2,0.2-0.4,0.3-0.7,0.3
		c-0.2,0-0.4-0.1-0.5-0.2c-0.1-0.1-0.2-0.3-0.2-0.5c0-0.3,0.1-0.5,0.3-0.7C61.4,104.5,61.7,104.4,61.9,104.4">
  </path>
  <path class="st1" d="M68.2,108.5c0.7,0,1.2,0.2,1.7,0.8c0.4,0.5,0.7,1.2,0.7,2.1c0,1.4-0.5,2.7-1.6,3.8c-1.1,1.1-2.2,1.7-3.4,1.7
		c-0.7,0-1.3-0.2-1.8-0.7c-0.4-0.5-0.7-1.1-0.7-1.8c0-1.3,0.4-2.6,1.2-3.7C65.4,109.2,66.6,108.5,68.2,108.5 M67.3,109.3
		c-0.6,0-1.1,0.4-1.7,1.2c-0.5,0.8-0.8,1.9-0.8,3.2c0,0.8,0.2,1.5,0.5,2c0.2,0.4,0.6,0.5,1,0.5c0.6,0,1.1-0.3,1.6-1
		c0.6-0.9,0.9-1.9,0.9-3.2c0-1-0.1-1.6-0.4-2.1C68.1,109.5,67.7,109.3,67.3,109.3">
  </path>
  <path class="st1" d="M72.3,110.8l-0.3-0.3c0.9-0.8,1.6-1.3,2.1-1.6c0.5-0.3,1-0.4,1.3-0.4c0.1,0,0.3,0,0.3,0.1
		c0.1,0.1,0.1,0.1,0.1,0.2c0,0.1,0,0.2-0.1,0.3l-0.5,1.9c0.7-0.7,1.6-1.4,2.6-2c0.6-0.3,1-0.5,1.4-0.5c0.3,0,0.5,0.1,0.6,0.2
		c0.1,0.2,0.2,0.4,0.2,0.7c0,0.2,0,0.4-0.1,0.7c-0.1,0.4-0.4,1.3-0.9,2.7c-0.4,1.3-0.7,2.2-0.7,2.6c0,0.1,0,0.2,0.1,0.3
		c0,0.1,0.1,0.1,0.2,0.1c0.2,0,0.5-0.2,0.9-0.5c0.3-0.3,0.6-0.5,0.9-0.7l0.3,0.3c-0.6,0.7-1.3,1.2-2,1.6c-0.4,0.3-0.8,0.4-1.1,0.4
		c-0.3,0-0.5-0.1-0.6-0.3c-0.1-0.2-0.2-0.5-0.2-0.9c0-0.6,0.4-2,1.1-4.3c0.2-0.8,0.4-1.3,0.4-1.4c0-0.2-0.1-0.3-0.4-0.3
		c-0.3,0-0.6,0.1-1.1,0.4c-0.6,0.4-1.2,0.9-1.6,1.4c-0.3,0.3-0.5,0.9-0.7,1.7l-0.8,3.4h-1.5c0.3-1,0.5-1.9,0.7-2.8l0.9-3.7
		c0-0.1,0-0.3,0-0.3c0-0.2-0.1-0.3-0.2-0.3c-0.1,0-0.3,0.1-0.5,0.2C73.1,110.1,72.7,110.4,72.3,110.8">
  </path>
  <path class="st1" d="M86.6,108.5c0.6,0,1.1,0.1,1.4,0.3c0.3,0.2,0.5,0.5,0.5,0.8c0,0.2-0.1,0.3-0.2,0.5c-0.1,0.1-0.3,0.2-0.5,0.2
		c-0.1,0-0.2,0-0.3-0.1c-0.1-0.1-0.2-0.2-0.4-0.4c-0.3-0.4-0.7-0.6-1-0.6c-0.3,0-0.5,0.1-0.7,0.3c-0.2,0.2-0.3,0.5-0.3,0.8
		c0,0.3,0.1,0.5,0.2,0.8c0.1,0.2,0.5,0.6,1,1.2c0.8,0.8,1.1,1.5,1.1,2.2c0,0.7-0.3,1.3-0.9,1.8c-0.6,0.5-1.4,0.8-2.4,0.8
		c-0.8,0-1.4-0.2-1.8-0.5c-0.4-0.3-0.6-0.7-0.6-1.2c0-0.2,0.1-0.4,0.2-0.6c0.2-0.1,0.3-0.2,0.6-0.2c0.2,0,0.4,0.1,0.5,0.2
		c0.1,0.1,0.2,0.3,0.2,0.4c0,0.1,0,0.1,0,0.3c0,0.1,0,0.2,0,0.2c0,0.2,0.1,0.4,0.3,0.5c0.2,0.1,0.4,0.2,0.8,0.2c0.4,0,0.7-0.1,1-0.2
		c0.3-0.1,0.5-0.3,0.7-0.5c0.2-0.2,0.2-0.5,0.2-0.7c0-0.2-0.1-0.5-0.2-0.7c-0.1-0.2-0.5-0.6-1-1.1c-0.7-0.7-1.1-1.5-1.1-2.1
		c0-0.6,0.3-1.2,0.8-1.6C85.1,108.8,85.8,108.5,86.6,108.5">
  </path>
  <path class="st1" d="M97.6,114.6l0.3,0.4c-0.6,0.7-1.3,1.2-1.9,1.6c-0.4,0.3-0.8,0.4-1.1,0.4c-0.2,0-0.4-0.1-0.6-0.3
		c-0.2-0.2-0.2-0.5-0.2-0.8c0-0.3,0.1-0.6,0.2-1.1c0.1-0.5,0.4-1.5,1-3.2c0.2-0.8,0.3-1.3,0.3-1.4c0-0.2-0.1-0.3-0.3-0.3
		c-0.3,0-0.6,0.1-1.1,0.4c-0.6,0.4-1.1,0.8-1.6,1.4c-0.3,0.4-0.5,0.9-0.7,1.6l-0.8,3.4h-1.5c0.3-1.1,0.6-2,0.8-2.7l1.5-6.2
		c0.3-1.1,0.6-2,1.1-2.6c0.4-0.6,1-1.1,1.7-1.5c0.7-0.4,1.4-0.6,2.1-0.6c0.3,0,0.5,0.1,0.7,0.2c0.2,0.1,0.3,0.3,0.3,0.5
		c0,0.2-0.1,0.3-0.2,0.5c-0.2,0.1-0.4,0.2-0.7,0.2c-0.2,0-0.4,0-0.6-0.1c-0.6-0.1-1-0.1-1.2-0.1c-0.3,0-0.6,0.1-0.8,0.4
		c-0.2,0.2-0.4,0.8-0.6,1.7l-1.1,4.8c0.8-0.8,1.7-1.5,2.7-2c0.6-0.3,1-0.5,1.4-0.5c0.3,0,0.5,0.1,0.6,0.2c0.2,0.1,0.2,0.4,0.2,0.6
		c0,0.2,0,0.4-0.1,0.7c-0.1,0.4-0.3,1.1-0.6,2.1c-0.4,1.4-0.7,2.2-0.8,2.6c-0.1,0.3-0.1,0.6-0.1,0.9c0,0.1,0,0.2,0.1,0.2
		c0,0.1,0.1,0.1,0.2,0.1c0.2,0,0.5-0.2,0.9-0.5C96.9,115.1,97.2,114.9,97.6,114.6">
  </path>
  <path class="st1" d="M99.4,110.8l-0.5-0.3c0.7-0.7,1.3-1.2,1.9-1.5c0.6-0.3,1-0.4,1.4-0.4c0.2,0,0.4,0,0.5,0.1
		c0.1,0.1,0.2,0.2,0.2,0.4c0,0.2-0.2,1-0.7,2.4c-0.7,2.3-1.1,3.7-1.1,4.1c0,0.1,0,0.2,0.1,0.2c0,0.1,0.1,0.1,0.2,0.1
		c0.2,0,0.8-0.4,1.7-1.2l0.4,0.4c-0.9,0.8-1.6,1.4-2.1,1.6c-0.4,0.2-0.8,0.3-1.1,0.3c-0.2,0-0.4-0.1-0.6-0.2
		c-0.1-0.1-0.2-0.3-0.2-0.6c0-0.8,0.5-2.8,1.5-5.9c0-0.1,0.1-0.3,0.1-0.4c0-0.1-0.1-0.2-0.2-0.2c-0.1,0-0.3,0.1-0.5,0.2
		C100.4,109.9,100,110.2,99.4,110.8 M103.4,104.4c0.2,0,0.4,0.1,0.5,0.2c0.1,0.1,0.2,0.3,0.2,0.5c0,0.3-0.1,0.5-0.3,0.7
		c-0.2,0.2-0.4,0.3-0.7,0.3c-0.2,0-0.4-0.1-0.5-0.2c-0.1-0.1-0.2-0.3-0.2-0.5c0-0.3,0.1-0.5,0.3-0.7
		C102.9,104.5,103.2,104.4,103.4,104.4">
  </path>
  <path class="st1" d="M104.8,110.9l-0.4-0.4c0.6-0.7,1.2-1.2,1.9-1.5c0.6-0.3,1.1-0.5,1.6-0.5c0.2,0,0.3,0,0.4,0.1
		c0.1,0.1,0.2,0.2,0.2,0.4c0,0.2,0,0.4-0.1,0.6c0,0.2-0.2,0.7-0.4,1.4c1-1,1.8-1.6,2.1-1.8c0.6-0.4,1.2-0.6,1.8-0.6
		c0.3,0,0.6,0.2,0.9,0.5c0.2,0.3,0.4,0.8,0.4,1.4c0,1.6-0.5,3-1.5,4.4c-1,1.4-2.2,2.1-3.4,2.1c-0.5,0-1-0.1-1.5-0.4l-0.9,3.2
		c-0.1,0.2-0.1,0.4-0.1,0.5c0,0.2,0.1,0.4,0.3,0.5c0.3,0.2,0.9,0.3,1.9,0.4l-0.1,0.5c-1.1-0.1-2-0.1-2.6-0.1c-0.6,0-1.5,0-2.5,0.1
		l0.1-0.5c0.5-0.1,0.9-0.2,1.1-0.4c0.2-0.2,0.4-0.6,0.6-1.2l1.9-7.3c0.3-1.4,0.5-2.1,0.5-2.3c0-0.2-0.1-0.3-0.3-0.3
		C106.2,109.7,105.6,110.1,104.8,110.9 M106.8,115.5c0.5,0.5,1.1,0.8,1.7,0.8c0.8,0,1.5-0.6,2.2-1.8c0.6-1.2,0.9-2.4,0.9-3.5
		c0-0.4-0.1-0.6-0.3-0.8c-0.2-0.2-0.4-0.3-0.7-0.3c-0.3,0-0.7,0.2-1.1,0.5c-0.6,0.5-1.1,0.9-1.4,1.4c-0.2,0.3-0.5,0.9-0.7,1.7
		L106.8,115.5z">
  </path>
  <path class="st1" d="M122.6,110.2c0.6-0.6,1.1-1,1.6-1.3c0.5-0.3,1-0.4,1.4-0.4c0.5,0,0.9,0.2,1.1,0.5c0.3,0.4,0.4,0.9,0.4,1.6
		c0,1.1-0.3,2.1-0.8,3.1c-0.5,1-1.2,1.8-2,2.3c-0.8,0.5-1.5,0.8-2.3,0.8c-0.6,0-1.1-0.2-1.5-0.5c-0.4-0.3-0.6-0.8-0.6-1.3
		c0-0.4,0.1-1.1,0.3-1.8l1.2-5.1c0.3-1.2,0.7-2.2,1.1-2.8c0.4-0.7,1-1.2,1.8-1.6c0.7-0.4,1.4-0.6,2.1-0.6c0.4,0,0.7,0.1,0.9,0.2
		c0.2,0.1,0.3,0.3,0.3,0.5c0,0.2-0.1,0.4-0.2,0.5c-0.2,0.1-0.4,0.2-0.7,0.2c-0.2,0-0.6,0-1.2-0.1c-0.2,0-0.5-0.1-0.7-0.1
		c-0.3,0-0.6,0.2-0.8,0.5c-0.2,0.3-0.4,1-0.6,2.1L122.6,110.2z M124.6,109.6c-0.3,0-0.7,0.2-1.2,0.6c-0.5,0.4-0.9,1-1.3,2
		c-0.4,1-0.6,1.9-0.6,2.8c0,0.3,0.1,0.6,0.4,0.9c0.2,0.2,0.5,0.4,0.8,0.4c0.8,0,1.4-0.6,2-1.7c0.6-1.1,0.9-2.3,0.9-3.4
		c0-0.5-0.1-0.9-0.3-1.2C125.1,109.7,124.9,109.6,124.6,109.6">
  </path>
  <path class="st1" d="M134.1,114.2l0.3,0.4c-1.7,1.5-3.1,2.2-4.3,2.2c-0.5,0-0.9-0.2-1.1-0.5c-0.3-0.3-0.4-0.8-0.4-1.5
		c0-1.4,0.4-2.7,1.3-4.1c1-1.5,2.2-2.3,3.6-2.3c0.5,0,0.9,0.1,1.1,0.3c0.3,0.2,0.4,0.5,0.4,0.9c0,0.4-0.2,0.8-0.5,1.2
		c-0.3,0.4-0.9,0.8-1.7,1.3c-0.4,0.2-1.2,0.6-2.5,1.1c-0.1,0.3-0.1,0.7-0.1,1c0,0.5,0.1,0.8,0.2,1c0.2,0.2,0.4,0.3,0.7,0.3
		c0.3,0,0.6-0.1,0.9-0.2C132.6,115.2,133.3,114.8,134.1,114.2 M130.5,112.8c1.1-0.5,1.9-1,2.5-1.5c0.4-0.4,0.6-0.7,0.6-1.1
		c0-0.3-0.1-0.5-0.2-0.7c-0.2-0.2-0.4-0.2-0.6-0.2c-0.3,0-0.5,0.1-0.7,0.3c-0.3,0.2-0.6,0.6-0.8,1.1
		C130.9,111.4,130.7,112.1,130.5,112.8">
  </path>
  <path class="st1" d="M136.4,110.5L136,110l0.8-0.5c0.7-0.5,1.3-0.8,1.6-0.9c0.2-0.1,0.3-0.1,0.5-0.1c0.1,0,0.3,0.1,0.4,0.2
		c0.6,0.7,1.1,1.7,1.5,2.9c0.4,1.2,0.6,2.4,0.6,3.5c0,0.1,0,0.4,0,0.7c1.2-2,1.7-3.6,1.7-4.8c0-0.2-0.1-0.6-0.2-1
		c-0.1-0.5-0.2-0.8-0.2-1c0-0.2,0.1-0.3,0.2-0.5c0.1-0.1,0.3-0.2,0.5-0.2c0.2,0,0.4,0.1,0.6,0.3c0.1,0.2,0.2,0.4,0.2,0.7
		c0,0.8-0.2,1.9-0.6,3.1c-0.4,1.2-1,2.6-1.9,4c-0.9,1.4-1.7,2.5-2.4,3.2c-0.7,0.7-1.4,1.2-2.1,1.5c-0.7,0.3-1.3,0.4-1.9,0.4
		c-0.4,0-0.8-0.1-1-0.2c-0.2-0.2-0.3-0.3-0.3-0.6c0-0.2,0.1-0.4,0.3-0.5c0.2-0.1,0.4-0.2,0.7-0.2c0.2,0,0.6,0,1,0.1
		c0.4,0.1,0.7,0.1,0.9,0.1c0.4,0,0.9-0.2,1.3-0.5c0.6-0.4,1.1-1,1.5-1.6c0.4-0.6,0.6-1.2,0.6-1.9c0-0.9-0.1-2-0.4-3.2
		c-0.3-1.3-0.7-2.2-1.2-2.9c-0.2-0.3-0.5-0.5-0.8-0.5C137.5,109.9,137,110.1,136.4,110.5">
  </path>
  <path class="st1" d="M150.4,108.5c0.7,0,1.2,0.2,1.7,0.8c0.4,0.5,0.7,1.2,0.7,2.1c0,1.4-0.5,2.7-1.6,3.8c-1.1,1.1-2.2,1.7-3.4,1.7
		c-0.7,0-1.3-0.2-1.8-0.7c-0.4-0.5-0.7-1.1-0.7-1.8c0-1.3,0.4-2.6,1.2-3.7C147.5,109.2,148.8,108.5,150.4,108.5 M149.5,109.3
		c-0.6,0-1.1,0.4-1.7,1.2c-0.5,0.8-0.8,1.9-0.8,3.2c0,0.8,0.2,1.5,0.5,2c0.2,0.4,0.6,0.5,1,0.5c0.6,0,1.1-0.3,1.6-1
		c0.6-0.9,0.9-1.9,0.9-3.2c0-1-0.1-1.6-0.4-2.1C150.3,109.5,149.9,109.3,149.5,109.3">
  </path>
  <path class="st1" d="M154.5,110.8l-0.3-0.3c0.9-0.8,1.6-1.3,2.1-1.6c0.5-0.3,1-0.4,1.3-0.4c0.1,0,0.3,0,0.3,0.1
		c0.1,0.1,0.1,0.1,0.1,0.2c0,0.1,0,0.2,0,0.3l-0.5,1.9c0.7-0.7,1.6-1.4,2.6-2c0.6-0.3,1-0.5,1.4-0.5c0.3,0,0.5,0.1,0.6,0.2
		c0.1,0.2,0.2,0.4,0.2,0.7c0,0.2,0,0.4-0.1,0.7c-0.1,0.4-0.4,1.3-0.9,2.7c-0.4,1.3-0.7,2.2-0.7,2.6c0,0.1,0,0.2,0.1,0.3
		c0,0.1,0.1,0.1,0.2,0.1c0.2,0,0.5-0.2,0.9-0.5c0.3-0.3,0.6-0.5,0.9-0.7l0.3,0.3c-0.6,0.7-1.3,1.2-2,1.6c-0.4,0.3-0.8,0.4-1.1,0.4
		c-0.3,0-0.5-0.1-0.6-0.3c-0.1-0.2-0.2-0.5-0.2-0.9c0-0.6,0.4-2,1.1-4.3c0.2-0.8,0.3-1.3,0.3-1.4c0-0.2-0.1-0.3-0.4-0.3
		c-0.3,0-0.6,0.1-1.1,0.4c-0.6,0.4-1.2,0.9-1.6,1.4c-0.3,0.3-0.5,0.9-0.7,1.7l-0.8,3.4h-1.5c0.3-1,0.5-1.9,0.7-2.8l0.9-3.7
		c0-0.1,0-0.3,0-0.3c0-0.2-0.1-0.3-0.2-0.3c-0.1,0-0.3,0.1-0.5,0.2C155.2,110.1,154.9,110.4,154.5,110.8">
  </path>
  <path class="st1" d="M172.2,114.6l0.3,0.4c-0.9,0.7-1.6,1.2-2,1.4c-0.6,0.3-1.1,0.5-1.5,0.5c-0.2,0-0.3,0-0.4-0.1
		c-0.1-0.1-0.1-0.2-0.1-0.3c0-0.1,0-0.3,0.1-0.5l0.4-1.2c-0.8,0.8-1.5,1.4-2,1.7c-0.5,0.3-1,0.4-1.5,0.4c-0.4,0-0.7-0.1-0.9-0.4
		c-0.2-0.3-0.4-0.7-0.4-1.3c0-0.9,0.3-2,1-3.1c0.7-1.2,1.4-2.1,2.2-2.6c0.8-0.6,1.6-0.9,2.2-0.9c0.1,0,0.4,0,0.7,0.1
		c0.3-1.2,0.6-2.2,0.9-2.7c0.3-0.6,0.7-1.1,1.1-1.5c0.5-0.4,1-0.7,1.6-1c0.6-0.2,1.2-0.3,1.7-0.3c0.3,0,0.5,0.1,0.7,0.2
		c0.2,0.1,0.2,0.3,0.2,0.5c0,0.2-0.1,0.4-0.2,0.5c-0.2,0.1-0.4,0.2-0.6,0.2c-0.2,0-0.5,0-1-0.1c-0.5-0.1-0.8-0.1-1-0.1
		c-0.2,0-0.4,0.1-0.6,0.2c-0.2,0.1-0.4,0.4-0.5,0.9c-0.1,0.3-0.4,1.2-0.7,2.8l-1.5,5.8c-0.2,0.7-0.3,1.1-0.3,1.4
		c0,0.2,0.1,0.4,0.3,0.4c0.1,0,0.3,0,0.4-0.1C171.1,115.4,171.5,115.1,172.2,114.6 M170,109.7c-0.5-0.1-0.9-0.2-1.2-0.2
		c-0.5,0-0.9,0.2-1.3,0.5c-0.4,0.3-0.9,1-1.3,2c-0.4,1-0.6,1.8-0.6,2.5c0,0.3,0.1,0.6,0.3,0.8c0.2,0.2,0.4,0.3,0.6,0.3
		c0.3,0,0.6-0.1,1-0.4c0.5-0.4,0.9-0.8,1.2-1.3c0.2-0.3,0.4-1.1,0.7-2.4L170,109.7z">
  </path>
  <path class="st1" d="M182.3,110.2c0.6-0.6,1.1-1,1.6-1.3c0.5-0.3,1-0.4,1.4-0.4c0.5,0,0.9,0.2,1.1,0.5c0.3,0.4,0.4,0.9,0.4,1.6
		c0,1.1-0.3,2.1-0.8,3.1c-0.5,1-1.2,1.8-1.9,2.3c-0.8,0.5-1.5,0.8-2.3,0.8c-0.6,0-1.1-0.2-1.5-0.5c-0.4-0.3-0.6-0.8-0.6-1.3
		c0-0.4,0.1-1.1,0.3-1.8l1.2-5.1c0.3-1.2,0.7-2.2,1.1-2.8c0.4-0.7,1-1.2,1.7-1.6c0.7-0.4,1.4-0.6,2.1-0.6c0.4,0,0.7,0.1,0.9,0.2
		c0.2,0.1,0.3,0.3,0.3,0.5c0,0.2-0.1,0.4-0.2,0.5c-0.2,0.1-0.4,0.2-0.7,0.2c-0.2,0-0.6,0-1.2-0.1c-0.2,0-0.5-0.1-0.7-0.1
		c-0.3,0-0.6,0.2-0.8,0.5c-0.2,0.3-0.4,1-0.6,2.1L182.3,110.2z M184.3,109.6c-0.3,0-0.7,0.2-1.2,0.6c-0.5,0.4-0.9,1-1.3,2
		c-0.4,1-0.6,1.9-0.6,2.8c0,0.3,0.1,0.6,0.4,0.9c0.2,0.2,0.5,0.4,0.8,0.4c0.8,0,1.4-0.6,2-1.7c0.6-1.1,0.9-2.3,0.9-3.4
		c0-0.5-0.1-0.9-0.3-1.2C184.8,109.7,184.6,109.6,184.3,109.6">
  </path>
  <path class="st1" d="M195.5,108.4l0.7-0.1l-0.8,2.4c-0.3,1-0.6,2.1-0.9,3.4c-0.2,0.7-0.2,1.1-0.2,1.3c0,0.2,0.1,0.3,0.3,0.3
		c0.1,0,0.3-0.1,0.5-0.2c0.4-0.2,0.8-0.5,1.2-0.9l0.3,0.4c-0.8,0.7-1.3,1.1-1.5,1.2c-0.4,0.3-0.9,0.5-1.2,0.6
		c-0.3,0.1-0.5,0.1-0.8,0.1c-0.2,0-0.3,0-0.4-0.1c-0.1-0.1-0.1-0.2-0.1-0.3c0-0.1,0-0.2,0.1-0.4l0.4-1.3c-0.6,0.7-1.3,1.2-2.1,1.7
		c-0.5,0.3-1,0.4-1.4,0.4c-0.4,0-0.7-0.1-0.9-0.4c-0.3-0.4-0.4-0.8-0.4-1.4c0-0.7,0.2-1.4,0.6-2.3c0.4-0.8,0.9-1.6,1.5-2.3
		c0.7-0.7,1.3-1.2,2.1-1.5c0.6-0.2,1.3-0.4,2.1-0.4c0.2,0,0.4,0,0.7,0L195.5,108.4z M194.2,109.8c-0.4-0.1-0.7-0.1-0.9-0.1
		c-0.6,0-1.2,0.2-1.6,0.5c-0.5,0.3-0.9,0.9-1.3,1.7c-0.4,0.8-0.6,1.7-0.6,2.5c0,0.4,0.1,0.7,0.2,0.9c0.2,0.2,0.4,0.3,0.6,0.3
		c0.5,0,1-0.2,1.5-0.7c0.5-0.5,0.9-1.2,1.2-2.1L194.2,109.8z">
  </path>
  <path class="st1" d="M198.1,110.8l-0.3-0.3c0.9-0.8,1.6-1.3,2.1-1.6c0.5-0.3,1-0.4,1.3-0.4c0.1,0,0.3,0,0.3,0.1
		c0.1,0.1,0.1,0.1,0.1,0.2c0,0.1,0,0.2-0.1,0.3l-0.5,1.9c0.7-0.7,1.6-1.4,2.6-2c0.6-0.3,1-0.5,1.4-0.5c0.3,0,0.5,0.1,0.6,0.2
		c0.2,0.2,0.2,0.4,0.2,0.7c0,0.2,0,0.4-0.1,0.7c-0.1,0.4-0.4,1.3-0.9,2.7c-0.4,1.3-0.7,2.2-0.7,2.6c0,0.1,0,0.2,0.1,0.3
		c0,0.1,0.1,0.1,0.2,0.1c0.2,0,0.5-0.2,0.9-0.5c0.3-0.3,0.6-0.5,0.9-0.7l0.3,0.3c-0.6,0.7-1.3,1.2-2,1.6c-0.4,0.3-0.8,0.4-1.1,0.4
		c-0.3,0-0.5-0.1-0.6-0.3c-0.1-0.2-0.2-0.5-0.2-0.9c0-0.6,0.4-2,1.1-4.3c0.2-0.8,0.3-1.3,0.3-1.4c0-0.2-0.1-0.3-0.4-0.3
		c-0.3,0-0.6,0.1-1.1,0.4c-0.6,0.4-1.2,0.9-1.6,1.4c-0.3,0.3-0.5,0.9-0.7,1.7l-0.8,3.4h-1.5c0.3-1,0.5-1.9,0.7-2.8l0.9-3.7
		c0-0.1,0.1-0.3,0.1-0.3c0-0.2-0.1-0.3-0.2-0.3c-0.1,0-0.3,0.1-0.5,0.2C198.9,110.1,198.5,110.4,198.1,110.8">
  </path>
  <path class="st1" d="M209.5,116.6H208l1.3-5.2c0.7-2.6,1.1-4.2,1.3-4.8c0.2-0.6,0.4-1.1,0.7-1.5c0.3-0.4,0.6-0.7,1.1-1.1
		c0.4-0.3,0.9-0.5,1.4-0.7c0.5-0.2,0.9-0.2,1.3-0.2c0.4,0,0.6,0.1,0.8,0.2c0.2,0.1,0.3,0.3,0.3,0.5c0,0.2-0.1,0.3-0.2,0.5
		c-0.2,0.1-0.4,0.2-0.6,0.2c-0.3,0-0.8,0-1.4-0.1c-0.2,0-0.4-0.1-0.5-0.1c-0.2,0-0.4,0.1-0.6,0.2c-0.2,0.1-0.4,0.4-0.5,0.8
		c-0.1,0.4-0.4,1.1-0.6,2.3l-0.7,3.1c0.7-0.7,1.3-1.2,2-1.6c0.5-0.3,1-0.4,1.5-0.4c0.3,0,0.6,0.1,0.9,0.4c0.2,0.2,0.3,0.5,0.3,0.9
		c0,0.7-0.4,1.3-1.1,1.8c-0.8,0.5-1.9,0.8-3.5,0.9c0.5,0.2,0.9,0.5,1.3,0.7c0.3,0.3,0.6,0.6,0.9,1.1c0.3,0.5,0.7,1.2,1.2,2.3
		c0.6,1.3,1.1,2.1,1.6,2.6c0.5,0.4,1,0.6,1.6,0.6c0.3,0,0.6-0.1,0.8-0.2c0.2-0.1,0.3-0.3,0.3-0.4c0-0.1,0-0.2-0.1-0.4
		c-0.1-0.2-0.1-0.3-0.1-0.4c0-0.1,0.1-0.3,0.2-0.4c0.1-0.1,0.3-0.2,0.4-0.2c0.2,0,0.4,0.1,0.5,0.2c0.1,0.1,0.2,0.3,0.2,0.6
		c0,0.5-0.2,0.9-0.7,1.2c-0.5,0.4-1,0.5-1.8,0.5c-0.7,0-1.4-0.2-2-0.5c-0.6-0.4-1.1-0.9-1.6-1.7c-0.3-0.4-0.8-1.5-1.5-3.1
		c-0.3-0.8-0.6-1.3-0.9-1.7c-0.2-0.3-0.5-0.6-0.9-0.9L209.5,116.6z M210.6,112.1c0.9,0,1.7-0.1,2.2-0.3c0.6-0.2,1-0.4,1.2-0.7
		c0.2-0.3,0.4-0.6,0.4-0.9c0-0.2-0.1-0.4-0.2-0.6c-0.1-0.1-0.3-0.2-0.5-0.2c-0.6,0-1.6,0.7-2.9,2L210.6,112.1z">
  </path>
  <path class="st1" d="M218,110.8l-0.4-0.3c0.7-0.7,1.3-1.2,1.9-1.5c0.6-0.3,1-0.4,1.4-0.4c0.2,0,0.4,0,0.5,0.1
		c0.1,0.1,0.2,0.2,0.2,0.4c0,0.2-0.2,1-0.7,2.4c-0.7,2.3-1.1,3.7-1.1,4.1c0,0.1,0,0.2,0.1,0.2c0,0.1,0.1,0.1,0.2,0.1
		c0.2,0,0.8-0.4,1.7-1.2l0.4,0.4c-0.9,0.8-1.6,1.4-2,1.6c-0.4,0.2-0.8,0.3-1.1,0.3c-0.2,0-0.4-0.1-0.6-0.2c-0.1-0.1-0.2-0.3-0.2-0.6
		c0-0.8,0.5-2.8,1.5-5.9c0-0.1,0.1-0.3,0.1-0.4c0-0.1-0.1-0.2-0.2-0.2c-0.1,0-0.3,0.1-0.5,0.2C219,109.9,218.6,110.2,218,110.8
		 M222,104.4c0.2,0,0.4,0.1,0.5,0.2c0.1,0.1,0.2,0.3,0.2,0.5c0,0.3-0.1,0.5-0.3,0.7c-0.2,0.2-0.4,0.3-0.7,0.3
		c-0.2,0-0.4-0.1-0.5-0.2c-0.1-0.1-0.2-0.3-0.2-0.5c0-0.3,0.1-0.5,0.3-0.7C221.5,104.5,221.7,104.4,222,104.4">
  </path>
  <path class="st1" d="M223.5,110.8l-0.3-0.3c0.9-0.8,1.6-1.3,2.1-1.6c0.5-0.3,1-0.4,1.3-0.4c0.1,0,0.3,0,0.3,0.1
		c0.1,0.1,0.1,0.1,0.1,0.2c0,0.1,0,0.2-0.1,0.3l-0.5,1.9c0.7-0.7,1.6-1.4,2.6-2c0.6-0.3,1-0.5,1.4-0.5c0.3,0,0.5,0.1,0.6,0.2
		c0.2,0.2,0.2,0.4,0.2,0.7c0,0.2,0,0.4-0.1,0.7c-0.1,0.4-0.4,1.3-0.9,2.7c-0.4,1.3-0.7,2.2-0.7,2.6c0,0.1,0,0.2,0.1,0.3
		c0,0.1,0.1,0.1,0.2,0.1c0.2,0,0.5-0.2,0.9-0.5c0.3-0.3,0.6-0.5,0.9-0.7l0.3,0.3c-0.6,0.7-1.3,1.2-2,1.6c-0.4,0.3-0.8,0.4-1.1,0.4
		c-0.3,0-0.5-0.1-0.6-0.3c-0.1-0.2-0.2-0.5-0.2-0.9c0-0.6,0.4-2,1.1-4.3c0.2-0.8,0.3-1.3,0.3-1.4c0-0.2-0.1-0.3-0.4-0.3
		c-0.3,0-0.6,0.1-1.1,0.4c-0.6,0.4-1.2,0.9-1.6,1.4c-0.3,0.3-0.5,0.9-0.7,1.7l-0.8,3.4h-1.5c0.3-1,0.5-1.9,0.8-2.8l0.9-3.7
		c0-0.1,0.1-0.3,0.1-0.3c0-0.2-0.1-0.3-0.2-0.3c-0.1,0-0.3,0.1-0.5,0.2C224.3,110.1,223.9,110.4,223.5,110.8">
  </path>
  <path class="st1" d="M240.2,108.5l0.8-0.2c-0.5,1.5-1,3-1.4,4.5c-0.3,1.1-0.5,2-0.6,2.7c-0.1,0.4-0.1,0.8-0.1,1.4
		c0,0.9-0.1,1.7-0.3,2.2c-0.3,0.8-0.8,1.4-1.6,1.9c-0.8,0.5-1.7,0.7-2.8,0.7c-0.9,0-1.6-0.2-2.2-0.6c-0.5-0.4-0.8-0.9-0.8-1.4
		c0-0.5,0.2-1,0.6-1.5c0.3-0.3,1-0.8,2-1.2c0.5-0.2,1-0.5,1.4-0.8c-0.5,0.2-0.9,0.4-1.2,0.4c-0.3,0-0.5-0.1-0.7-0.3
		c-0.2-0.2-0.3-0.5-0.3-0.9c0-1.2,0.4-2.4,1.1-3.5c0.7-1.2,1.6-2,2.7-2.6c0.6-0.4,1.5-0.5,2.4-0.5c0.2,0,0.4,0,0.7,0L240.2,108.5z
		 M237.7,115.1c-0.5,0.4-1.4,1-2.7,1.9c-1.2,0.7-1.9,1.3-2.2,1.6c-0.3,0.3-0.4,0.7-0.4,1.1c0,0.4,0.2,0.7,0.5,1
		c0.3,0.3,0.8,0.4,1.3,0.4c0.5,0,0.9-0.1,1.4-0.3c0.4-0.2,0.8-0.5,1.1-0.9c0.3-0.4,0.5-0.9,0.7-1.4c0.1-0.5,0.2-1.2,0.2-2
		C237.6,116.2,237.6,115.8,237.7,115.1 M239.1,109.9c-0.3-0.1-0.6-0.1-0.9-0.1c-0.7,0-1.2,0.2-1.7,0.5c-0.5,0.3-0.9,0.9-1.2,1.6
		c-0.5,1.1-0.7,2-0.7,2.7c0,0.3,0.1,0.6,0.3,0.8c0.2,0.2,0.4,0.3,0.6,0.3c0.3,0,0.6-0.1,1-0.4c0.4-0.2,0.7-0.6,1-0.9
		c0.3-0.4,0.5-1,0.8-1.9L239.1,109.9z">
  </path>
  <path class="st2" d="M174.8,79.2L174.8,79.2c-0.2,0.1-0.7,0.1-1.2,0.1c-1.3,0-2.2-0.5-2.2-1.4c0-1.2,1.2-1.5,3.4-1.6V79.2z
		 M172.8,68.4h-4.6V72h5.2c0.8,0,1.3,0.5,1.4,1.2l0,0v0c-4.5,0.3-8.3,1.2-8.3,4.8c0,3.1,2.4,4.7,7.3,4.7h6v-9.5
		C179.8,70.1,177.7,68.4,172.8,68.4 M39.8,79.2L39.8,79.2c-0.2,0.1-0.7,0.1-1.2,0.1c-1.3,0-2.2-0.5-2.2-1.4c0-1.2,1.2-1.5,3.4-1.6
		V79.2z M37.8,68.4h-4.6V72h5.2c0.8,0,1.3,0.5,1.4,1.2l0,0v0c-4.5,0.3-8.3,1.2-8.3,4.8c0,3.1,2.4,4.7,7.3,4.7h6v-9.5
		C44.8,70.1,42.8,68.4,37.8,68.4 M119.7,82.8h5.5v-19h-5.5V82.8z M102.7,68.9v1.2h-1.6v3.7h1.6v8.9h5.2v-8.9h2.4v-3.7h-2.4v-1.2
		c0-1,0.8-1.4,1.9-1.4c0.2,0,0.5,0,0.8,0.1v-3.8c-0.5-0.1-1.2-0.1-1.8-0.1C105.2,63.6,102.7,65.2,102.7,68.9 M92.6,79.1L92.6,79.1
		c-1.2,0-1.8-1-1.8-3.4c0-2.3,0.7-3.4,1.8-3.4c1.2,0,1.8,1,1.8,3.4C94.5,78,93.8,79.1,92.6,79.1 M92.6,68.4L92.6,68.4
		c-4.5,0-7.2,3.1-7.2,7.3c0,4.2,2.6,7.3,7.2,7.3c4.6,0,7.2-3.1,7.2-7.3C99.8,71.6,97.2,68.4,92.6,68.4 M159.2,66.6h5.3v-3h-5.3V66.6
		z M159.2,82.8h5.3V68.4h-5.3V82.8z M133.7,68.4h-6.5v14.3h5.3V72.6c0.3-0.1,0.8-0.2,1.2-0.2c1,0,1.6,0.5,1.6,1.4v8.9h5.3v-9.5
		C140.7,70.1,138.7,68.4,133.7,68.4 M151.2,78.7L151.2,78.7c-0.2,0.1-0.6,0.1-0.9,0.1c-1.5,0-2.3-1.1-2.3-3.5c0-2,0.8-3.3,2.3-3.3
		c0.4,0,0.8,0.1,1,0.2V78.7z M151.2,68.5L151.2,68.5c-0.4-0.1-1-0.2-1.6-0.2c-4.7,0-7,2.8-7,7.1c0,4.8,2.7,7.3,7.7,7.3h6.2v-19h-5.3
		V68.5z M21.7,78.9L21.7,78.9c-0.5,0-1-0.1-1.4-0.1v-4h2c0.9,0,1.4,0.2,1.7,0.5c0.4,0.3,0.6,0.9,0.6,1.5
		C24.6,78.3,23.8,78.9,21.7,78.9 M20.3,67.6L20.3,67.6c0.3-0.1,0.9-0.1,1.4-0.1c2.1,0,2.8,0.8,2.8,2.1c0,0.7-0.2,1.2-0.6,1.5
		c-0.3,0.2-0.9,0.5-1.6,0.5h-2V67.6z M26.8,72.7L26.8,72.7c1.6-0.5,2.8-1.8,2.8-3.6c0-3.1-2.3-5.4-8-5.4h-6.6v19.1h6.6
		c5.7,0,8.3-2.1,8.3-5.6C30,74.8,28.3,73.2,26.8,72.7 M78.1,68.8h-6l-3.3,5.8h-0.1V63.7h-5.3v19h5.3v-6.9h0.1l3.7,6.9h5.9l-4.3-7.5
		L78.1,68.8z M53.9,68.5c-0.2,0-6.5,0-6.5,0v14.3h5.3V72.6c0.3-0.1,0.8-0.2,1.2-0.2c1,0,1.6,0.5,1.6,1.4v8.9h5.3v-9.5
		C60.9,70.1,58.8,68.5,53.9,68.5">
  </path>
  <polygon class="st1" points="214.5,74.3 187.5,96.8 202.6,66.1 171.8,49.3 207,52.9 214.5,0 222,52.9 257.3,49.3 226.4,66.1 
		241.6,96.8 	">
  </polygon>
  <polygon class="st3" points="214.5,73.7 189,94.9 203.3,65.9 174.1,50 207.5,53.4 214.5,3.7 221.6,53.4 254.9,50 225.8,65.9 
		240.1,94.9 	">
  </polygon>
  <polygon class="st4" points="221.6,53.4 207.5,53.4 203.3,65.9 214.5,73.7 225.8,65.9 	">
  </polygon>
  <path class="st1" d="M214.5,71c-5,0-9.1-3.8-9.1-8.6c0-4.7,4.1-8.6,9.1-8.6c5,0,9.1,3.8,9.1,8.6C223.6,67.2,219.5,71,214.5,71">
  </path>
  <path class="st2" d="M214.5,70.6c-4.7,0-8.6-3.6-8.6-8.1c0-4.5,3.9-8.1,8.6-8.1c4.7,0,8.6,3.6,8.6,8.1
		C223.1,66.9,219.3,70.6,214.5,70.6">
  </path>
  <path class="st1" d="M214.7,57.4C214.7,57.4,214.7,57.4,214.7,57.4c-0.1,0-0.1,0-0.1,0c0,0-0.1,0-0.1,0c-0.1,0-0.1,0-0.2,0
		c0,0,0,0-0.1,0c0,0,0,0,0,0.1c0,0,0.1,0,0.1,0c0,0,0,0.1,0.1,0.1c0,0,0.1,0,0.1,0C214.6,57.6,214.7,57.5,214.7,57.4
		C214.7,57.5,214.7,57.5,214.7,57.4C214.8,57.4,214.8,57.4,214.7,57.4 M214.5,57.5L214.5,57.5C214.5,57.5,214.5,57.5,214.5,57.5
		C214.6,57.6,214.5,57.6,214.5,57.5 M214.5,60.4c-0.1,0-0.2,0-0.2,0.1c0,0,0,0.1,0,0.2c0,0.1,0.1,0.1,0.2,0.1c0.1,0,0.2-0.1,0.2-0.1
		C214.8,60.5,214.7,60.4,214.5,60.4 M214.6,60.7C214.5,60.7,214.5,60.7,214.6,60.7c-0.1,0-0.1-0.1-0.1-0.2c0-0.1,0.1-0.1,0.1-0.1
		c0,0,0,0,0,0C214.6,60.4,214.6,60.6,214.6,60.7 M217.5,63.6C217.5,63.6,217.5,63.5,217.5,63.6c-0.1,0-0.1,0-0.2,0c0,0-0.1,0-0.1,0
		C217.3,63.7,217.5,63.7,217.5,63.6c0,0.1,0.1,0.1,0.1,0C217.6,63.6,217.6,63.6,217.5,63.6 M218.1,63.6c-0.1,0-0.1,0-0.2,0
		c0,0-0.1,0-0.1,0.1c0,0-0.1,0.1-0.1,0.2c0,0,0,0,0,0c0,0,0,0,0,0c0.1,0,0.2,0,0.3,0C218.1,63.8,218.1,63.7,218.1,63.6
		C218.1,63.6,218.2,63.6,218.1,63.6C218.1,63.6,218.1,63.6,218.1,63.6C218.1,63.6,218.1,63.6,218.1,63.6 M217.8,63.8
		C217.8,63.8,217.8,63.8,217.8,63.8C217.8,63.8,217.8,63.8,217.8,63.8C217.8,63.7,217.8,63.7,217.8,63.8
		C217.9,63.7,217.9,63.7,217.8,63.8c0.1,0,0.2,0,0.2-0.1c0,0,0,0,0,0C218,63.8,217.9,63.8,217.8,63.8 M217.2,63.6
		c-0.1-0.1-0.2,0-0.3,0c0,0,0,0-0.1,0c0,0.1,0,0.1,0.1,0.1c0,0.1,0.2,0.1,0.3,0.1c0,0,0,0,0,0c0,0,0,0,0,0c0,0,0-0.1,0-0.1
		C217.3,63.7,217.2,63.6,217.2,63.6 M217,63.7C217.1,63.7,217.1,63.7,217,63.7C217.1,63.8,217,63.8,217,63.7c0,0.1,0.1,0.1,0.2,0.1
		c0,0,0,0,0,0C217.1,63.8,217,63.8,217,63.7 M217.4,64.9C217.3,64.9,217.4,65,217.4,64.9c0.1,0.1,0.2,0.1,0.2,0
		C217.5,64.9,217.4,64.9,217.4,64.9 M216.2,66.7c0,0,0.1,0,0.2-0.1c-0.1-0.1-0.3-0.1-0.3,0.1C216.1,66.8,216.2,66.8,216.2,66.7
		 M216.7,68c0,0-0.1,0-0.1,0c0,0-0.1,0-0.1,0c0,0-0.1,0-0.2,0c-0.1,0-0.3,0-0.2,0.1c0,0,0.1,0,0.2,0.1c0,0,0,0.1,0,0.1
		c0.1,0.1,0.3,0,0.4,0.1c0.1,0,0.2,0,0.3,0c0,0,0.1,0,0.1,0c0.1,0,0.2,0,0.2-0.1c0,0,0.1-0.1,0.1-0.1c-0.1-0.1-0.2-0.1-0.4-0.1
		C217,68,216.8,68,216.7,68 M220.6,66.9c0,0-0.1,0-0.1,0c-0.1,0-0.2,0-0.2,0c-0.1,0-0.1,0-0.2,0c-0.1,0-0.2,0-0.2,0
		c-0.1,0-0.1-0.1-0.2-0.1c-0.2-0.1-0.4-0.2-0.7-0.3c0.1-0.1,0.1-0.1,0.1-0.2c0-0.1,0.1-0.2,0.1-0.3c0-0.1,0-0.2,0-0.2
		c0-0.1,0-0.3,0-0.4c0-0.4,0-0.8,0-1.2c0-0.2-0.1-0.3-0.1-0.5c-0.1-0.2-0.1-0.3-0.2-0.5c0,0-0.1-0.1-0.1-0.1c0,0-0.1-0.1-0.1-0.1
		c0,0,0,0,0-0.1c0-0.1-0.1-0.1-0.1-0.1c0,0-0.1-0.1-0.1-0.1c0,0-0.1,0-0.1,0c0,0-0.1,0-0.1,0c0,0,0,0-0.1,0c-0.1-0.1-0.2,0-0.3-0.1
		c0,0,0,0-0.1,0c-0.2,0-0.4,0-0.5-0.1c-0.2,0-0.3-0.1-0.5-0.2c0-0.1-0.1-0.1-0.1-0.1c0,0,0-0.1,0-0.2c0,0,0,0-0.1,0
		c-0.1-0.3-0.1-0.5-0.2-0.8c0-0.1-0.1-0.3-0.1-0.4c0-0.1,0-0.1,0-0.2c0-0.1,0-0.1,0-0.2c0-0.1,0-0.2,0-0.3c0,0,0.1-0.1,0.1-0.2
		c0,0,0,0,0,0c0,0-0.1-0.1-0.1-0.1c-0.1-0.2-0.1-0.3-0.1-0.5c0-0.2-0.1-0.4-0.1-0.5c0-0.1-0.1-0.1-0.1-0.2c0,0,0,0,0,0
		c0-0.1-0.1-0.2-0.2-0.2c0,0,0-0.1-0.1-0.1c0,0-0.1-0.1-0.1-0.1c0-0.1,0-0.1,0-0.2c0,0,0,0,0-0.1c0,0,0,0,0-0.1c0,0,0,0,0-0.1
		c0-0.1,0-0.1,0-0.2c0-0.1,0-0.1,0-0.1c0-0.1,0-0.1,0-0.2c0-0.1,0-0.1,0-0.2c0-0.1,0-0.1,0-0.2c0,0,0,0,0-0.1c0,0,0,0,0-0.1
		c0,0,0,0,0-0.1c0,0,0-0.1,0-0.1c0-0.2,0-0.3-0.2-0.4c-0.2-0.2-0.4-0.2-0.6-0.2h0c-0.2,0-0.4,0.1-0.6,0.2c-0.1,0.1-0.2,0.2-0.2,0.3
		c0,0,0,0,0,0c0,0.1-0.1,0.2-0.1,0.3c0,0.1,0,0.1-0.1,0.2c0,0,0,0.1,0,0.1c0,0,0,0,0,0c0,0,0,0,0,0.1c-0.1,0,0,0.1,0,0.2
		c0,0,0,0.1,0,0.1c-0.1,0-0.1,0.2,0,0.2c0,0,0,0,0,0.1c0,0,0,0.1,0,0.1c0,0,0,0,0,0.1c0,0.1,0,0.1,0,0.1c0,0-0.1,0.1,0,0.2
		c0,0,0,0,0,0.1c0,0,0,0,0,0.1c0,0-0.1,0.1-0.1,0.1c0,0,0,0.1-0.1,0.1c-0.1,0.1-0.1,0.2-0.2,0.3c-0.1,0.4-0.2,0.9-0.3,1.3
		c0,0.1,0,0.2-0.1,0.2c-0.2-0.1-0.5-0.1-0.8-0.2c0,0,0-0.1,0-0.1c0,0-0.1,0-0.2,0c0-0.1-0.1-0.1-0.2,0c0,0-0.1,0-0.1-0.1
		c0-0.1-0.1-0.2-0.2-0.3c0,0-0.1,0-0.1-0.1c-0.1,0-0.1-0.1-0.2-0.1c-0.1,0-0.2-0.1-0.2-0.1c0,0,0,0,0-0.1c-0.1-0.3-0.1-0.5-0.2-0.8
		c0,0,0-0.1,0-0.1c0,0,0,0,0,0c0,0,0-0.1,0-0.1c0-0.1-0.1-0.2-0.1-0.3c0.1,0,0.2-0.1,0.3-0.1c0-0.1,0.1-0.1,0.1-0.2
		c0-0.3-0.3-0.5-0.3-0.8c0-0.1,0-0.1,0-0.2c0,0-0.1,0.1-0.1,0.1c-0.1,0.3,0.1,0.5,0.1,0.7c0,0.1,0,0.2-0.1,0.3c0,0-0.1,0.1-0.1,0.1
		c0-0.1-0.1-0.2,0-0.3c0-0.1,0-0.1,0-0.2c0,0,0-0.1-0.1-0.1c0,0,0-0.1-0.1-0.1c-0.1-0.1-0.2-0.3-0.2-0.4c0,0,0-0.1-0.1-0.1
		c0,0,0,0.1,0,0.1c0,0.1,0,0.2,0,0.3c0,0.1,0,0.2,0,0.3c0,0,0,0.1,0,0.1c0,0,0,0,0,0c0,0,0,0.1,0,0.1c0.1,0.1,0.1,0.2,0.2,0.3
		c0,0-0.1,0,0,0.1c-0.2,0.1-0.3-0.1-0.3-0.2c0-0.1,0-0.3,0-0.4c0-0.1-0.1-0.3-0.2-0.4c0,0-0.1-0.1-0.1-0.1c0,0,0,0.1,0.1,0.1
		c0.1,0.2,0,0.6,0.1,0.9c0,0.1,0.1,0.2,0.2,0.3c0.1,0.1,0.3,0,0.4,0c0,0.1,0.1,0.2,0.1,0.4c0,0,0,0.1,0,0.1c0,0,0,0,0,0
		c0,0,0,0.1,0,0.1c0.1,0.3,0.2,0.6,0.3,0.9c0,0,0,0,0,0.1c0,0,0,0.1,0,0.1c0,0,0,0,0,0.1c0,0,0,0.1,0,0.1c0,0.1,0,0.1,0.1,0.1
		c0,0.1,0,0.1,0.1,0.2c0,0,0.1,0,0.1,0.1c0,0,0,0.1,0,0.2c0,0.1,0,0.1,0,0.2c0.1,0.3,0.2,0.6,0.2,1c0.3,1.1,0.6,2.1,0.8,3.2
		c0.1,0.2,0.1,0.4,0.2,0.6c0,0-0.1,0-0.2,0c-0.1,0-0.2,0.1-0.2,0.1c-0.1,0.1-0.3,0.1-0.4,0.2c0,0,0,0-0.1,0
		c-0.3,0.2-0.5,0.5-0.7,0.8c0,0-0.1,0.1-0.1,0.1c0,0,0,0.1,0,0.1c0,0,0,0.1-0.1,0.1c-0.1,0.1-0.1,0.3-0.1,0.4c0,0.2,0,0.4,0.1,0.5
		c-0.1,0-0.3,0-0.3,0.1c0,0,0.1,0.1,0.1,0.1c0,0-0.1,0-0.1,0c-0.1,0-0.3,0-0.3,0c0,0-0.1,0-0.1,0.1c0,0.1,0.2,0.1,0.3,0.1
		c0,0,0.1,0,0.1,0c0.1,0,0.1,0,0.2,0c0,0,0,0,0,0c0,0,0,0,0.1,0c0,0,0,0,0.1,0c0.1,0,0.2,0,0.2,0c0,0,0,0-0.1,0.1c0,0,0,0,0,0.1
		c0,0.1,0.1,0.1,0.2,0.1c0.1,0,0.3,0,0.4,0c0.1,0,0.2,0.1,0.3,0c0,0-0.1,0.1,0,0.2c0,0,0.1,0,0.1,0.1c0.1,0,0.2,0,0.3,0
		c0.1,0,0.2,0,0.3,0c0,0,0,0.1,0.1,0.1c0,0,0,0,0,0c0,0,0,0,0,0c0,0,0.2,0.1,0.2,0.1c0,0,0,0,0,0c0,0.1,0,0.2,0.1,0.3
		c0,0,0.1,0.1,0.1,0.1c0.1,0,0.1,0.1,0.2,0.1c0,0,0.1,0,0.2,0.1c0,0,0.1,0.1,0.1,0.1h0c0,0,0,0,0,0c0,0,0,0,0-0.1c0-0.1,0-0.1,0-0.2
		c0.1-0.4-0.2-0.7-0.3-0.9c0,0-0.1,0-0.1-0.1c0.1,0,0.2-0.1,0.2-0.1c0,0.1,0.1,0.3,0.1,0.4c0,0,0,0.1,0.1,0.1c0,0,0.1,0,0.1,0
		c0-0.1,0-0.1,0-0.2c0-0.1,0-0.2-0.1-0.3c0,0,0-0.1,0-0.2c0,0,0.2-0.1,0.3,0c0,0,0.1,0,0.2,0c0.1,0,0.1-0.1,0.2,0
		c0,0,0.1,0.1,0.1,0.1c0.1,0,0.3,0,0.4,0c0.1,0,0.1,0,0.2,0c0.1,0,0.2,0,0.2-0.1c0.1,0,0.2,0,0.2-0.1c0,0,0,0,0-0.1c0,0,0.1,0,0.1,0
		c0.1,0,0.2,0,0.2,0c0,0,0.1,0,0.1,0c0.1,0,0.2,0,0.3,0c0,0,0.1,0,0.1,0c0.1,0,0.1,0,0.2,0c0.1,0,0.2,0,0.3,0c0.1,0,0.2,0,0.3-0.1
		c0,0,0.1,0,0.1,0c0,0,0.1,0,0.1,0c0,0,0.1,0,0.1,0c0,0,0.1,0,0.1,0c0,0,0-0.1-0.1-0.1c-0.1-0.1-0.3-0.1-0.5,0c0,0-0.1,0-0.1,0
		c0,0,0.1,0,0.1,0c0,0,0,0,0.1-0.1c0.1,0,0.3,0,0.4,0c0.1,0,0.2,0.1,0.3,0.1c0,0,0,0,0,0.1c0.1,0,0.2,0.1,0.3,0.1
		c0.3,0,0.5,0.1,0.8,0.1c0.1,0.1,0.3,0.1,0.4,0.1c0,0-0.1,0-0.1,0.1c-0.2,0-0.4,0-0.6,0c-0.1,0-0.1,0.1,0,0.1c0.1,0,0.2,0.1,0.3,0.1
		c0.1,0,0.2,0,0.3,0c0,0,0.1,0,0.1-0.1c0,0,0,0,0-0.1c0.1,0,0.4,0,0.4-0.1c0,0,0,0,0-0.1c0.1,0,0.1-0.1,0.1-0.1c0,0,0,0,0.1,0
		c0,0,0.1,0,0.1,0c0,0,0.1-0.1,0.1-0.1c0.1,0,0.1,0,0.2,0c0.1,0,0.1-0.1,0.2-0.1c0.1,0,0.1,0,0.2,0c0.1,0,0.1,0,0.2,0
		c0.1,0,0.2,0,0.2,0c0,0,0.1,0,0.1-0.1c0.1,0,0.2,0,0.2-0.1c0,0,0,0,0,0c0.1-0.1,0.2-0.1,0.2-0.3C220.9,67.1,220.7,67,220.6,66.9
		 M210,57.8c-0.1,0-0.2,0-0.2,0c0,0-0.1,0-0.1-0.1c-0.1-0.1-0.1-0.4,0-0.6c0,0.1,0,0.2,0,0.3c0,0.1,0,0.1,0,0.2
		c0,0.1,0.1,0.1,0.2,0.1C209.9,57.8,209.9,57.7,210,57.8C210,57.7,210,57.7,210,57.8C210,57.8,210,57.8,210,57.8 M210,57.4
		c-0.1-0.1-0.1-0.2-0.2-0.3c0-0.1,0-0.2,0.1-0.3c0,0,0,0,0,0c0,0.1,0.1,0.2,0,0.2C210,57.2,210,57.3,210,57.4
		C210,57.4,210.1,57.4,210,57.4 M210.1,57.6C210.1,57.6,210.1,57.5,210.1,57.6C210.1,57.6,210.1,57.6,210.1,57.6
		c0.1,0.1,0.1,0.1,0.1,0.2c0,0,0,0-0.1,0C210.1,57.7,210.1,57.6,210.1,57.6 M210.2,58.1c0-0.1,0-0.2-0.1-0.3c0,0.1,0,0.1,0.1,0.2
		C210.3,58.1,210.3,58.2,210.2,58.1C210.2,58.2,210.2,58.2,210.2,58.1 M210.3,57.6c0,0,0.1,0,0.1-0.1
		C210.4,57.5,210.4,57.6,210.3,57.6C210.3,57.6,210.3,57.6,210.3,57.6 M219,66.1C219,66.1,219,66.2,219,66.1
		c-0.1,0.1-0.1,0.2-0.2,0.3c-0.1,0.1-0.2,0.2-0.4,0.3c0,0-0.1,0.1-0.1,0.1c0,0-0.1,0.1-0.1,0.1c0,0,0,0-0.1,0c0,0,0,0,0,0
		c0,0,0.1,0,0.1-0.1c0,0,0,0,0-0.1c0-0.1,0.1-0.1,0.2-0.2c0,0,0-0.1,0.1-0.1c0,0,0,0,0-0.1c0,0,0.1-0.1,0.1-0.1c0,0,0.1-0.1,0.1-0.1
		c0,0,0-0.1,0.1-0.1c0-0.2,0-0.3,0-0.5c-0.1,0.1,0,0.2,0,0.3c0,0.1-0.1,0.2-0.2,0.3c0-0.1,0-0.1,0-0.1c0-0.1,0.1-0.1,0.1-0.1
		c0-0.1,0-0.2,0-0.3c0,0,0-0.1,0-0.1c0,0,0-0.1,0-0.1c0,0,0-0.1,0-0.1c0,0,0-0.1,0-0.1c0,0,0-0.1,0-0.1c0,0,0-0.1,0-0.2c0,0,0,0,0,0
		c0,0,0-0.1,0,0c0.1,0,0.1,0.2,0.1,0.3c0,0.1,0,0.2,0,0.3c0,0.1,0,0.1,0,0.2c0,0.1,0.1,0.2,0.1,0.4C219,66,219,66,219,66.1
		 M217.7,65.8C217.7,65.8,217.7,65.8,217.7,65.8c0-0.1,0-0.2,0-0.2c0-0.1,0-0.1,0.1-0.1c0-0.1,0-0.1,0-0.2c0,0,0-0.1,0-0.1
		c0,0,0-0.2-0.1-0.2c0,0-0.1,0.1-0.1,0.1c0,0,0,0.1,0,0.1c0,0,0,0.1,0.1,0.1c0,0.1,0,0.2,0,0.2c0,0,0,0.1,0,0.1
		C217.7,65.8,217.6,65.8,217.7,65.8c-0.1,0.1,0,0.1,0,0.2c0.1,0.2-0.1,0.3-0.1,0.4c0,0-0.1,0-0.1,0.1c0,0.1-0.1,0.2-0.2,0.1
		c0,0,0.1-0.1,0.1-0.1c0.1,0,0.1-0.1,0.2-0.2c0-0.1,0-0.3,0-0.4c0-0.1,0-0.1,0-0.2c0-0.1,0-0.1,0-0.2c0-0.1-0.1-0.2,0-0.3
		c0,0,0.1-0.1,0.1-0.1c0,0,0-0.1,0-0.1c0,0-0.1,0-0.2,0c0,0,0,0.1,0,0.1c0,0,0,0,0,0.1c0,0,0,0.1,0,0.1c0,0,0,0.1,0,0.1
		c0,0.1-0.1,0.3-0.1,0.4c0,0,0,0,0-0.1c0,0,0,0,0-0.1c0,0,0-0.1,0-0.1c0,0,0-0.1,0-0.1c0-0.1,0.1-0.1,0.1-0.1c0,0,0-0.1,0-0.1
		c0-0.1-0.1-0.1,0-0.2c0,0,0,0,0,0c-0.1,0-0.1,0-0.2,0c0,0,0-0.1-0.1-0.2c0,0,0.1,0,0.1,0c0,0,0.1,0,0.1,0c0,0,0.1,0,0.1,0
		c0,0,0.1,0,0.1,0c0,0,0.1,0,0.1,0c0,0,0,0,0,0c0.1,0,0.1,0,0.1,0.1c0.1,0,0.2-0.1,0.2-0.2c0,0.1-0.1,0.2-0.1,0.4
		c0,0.1,0.1,0.2,0.1,0.3c0,0,0,0.1,0,0.1c0,0.2-0.1,0.3-0.1,0.4c0,0-0.1-0.1-0.1-0.1c0-0.1,0.1-0.1,0.1-0.2c0-0.1,0-0.2-0.1-0.3
		c0-0.1,0-0.1,0-0.1c0,0,0,0,0-0.1c0,0,0-0.1-0.1-0.1c0,0,0,0,0,0.1c0,0.1,0.1,0.2,0.1,0.2c0,0,0,0.1,0,0.1c0,0,0,0.1,0,0.2
		c0,0.1-0.1,0.1-0.1,0.2c0,0,0,0.1,0,0.2c0,0,0.1,0.1,0.1,0.1c0,0,0,0.1,0,0.1c0,0,0,0.1,0,0.2c0,0,0,0.1,0,0.2c0,0.1,0,0.1-0.1,0.1
		c0,0.1-0.1,0.1-0.1,0.1c0,0-0.1,0-0.2,0c0,0-0.1,0-0.1,0c0,0-0.1,0-0.1,0c0-0.1,0.1-0.2,0.2-0.2c0.1-0.1,0.1-0.2,0.1-0.4
		C217.8,66,217.7,65.9,217.7,65.8L217.7,65.8z M216.7,66.1C216.7,66.2,216.7,66.2,216.7,66.1C216.6,66.2,216.6,66.2,216.7,66.1
		c-0.1-0.1-0.1-0.2-0.1-0.3c0-0.1,0.1-0.2,0-0.4c0-0.1-0.1-0.1-0.1-0.2c-0.1-0.1-0.1-0.2-0.1-0.3c0-0.1,0.1-0.2,0.1-0.3
		c0-0.1,0-0.2,0-0.3c0,0,0.1-0.1,0.1-0.2c0,0,0,0,0,0.1c0,0.1,0.1,0.2,0,0.3c0,0.1-0.1,0.1-0.1,0.2c0,0.1,0,0.2,0,0.3
		c0,0.1,0,0.1,0.1,0.1c0,0.1,0.1,0.2,0.1,0.3c0,0,0,0.1,0,0.2c0,0.1-0.1,0.2,0,0.3c0,0.1,0.1,0.1,0.1,0.2c0.1,0.1,0.1,0.3,0,0.4
		c-0.1,0-0.1-0.1-0.1-0.1C216.8,66.4,216.7,66.2,216.7,66.1 M215.8,64.7C215.8,64.7,215.8,64.7,215.8,64.7L215.8,64.7
		c0.1,0.2,0,0.4,0.2,0.6c0.1,0.1,0.2,0.1,0.3,0.2c0.1,0,0,0.1,0,0.2c0,0,0,0.1,0,0.1c0,0,0,0.1,0,0.1c0,0,0-0.1,0-0.1
		c0,0-0.1-0.1-0.1-0.1c-0.1-0.1-0.2-0.1-0.3-0.2c-0.1-0.1-0.2-0.2-0.2-0.4C215.7,64.9,215.8,64.9,215.8,64.7 M215.7,64.9
		C215.7,64.9,215.7,64.9,215.7,64.9c0-0.1,0-0.2,0-0.2c0,0,0-0.1,0-0.1c0,0,0,0,0,0c0,0.1,0,0.2,0,0.2
		C215.7,64.8,215.7,64.9,215.7,64.9 M215.4,60.3C215.4,60.3,215.4,60.3,215.4,60.3c0-0.1,0.1-0.2,0.1-0.2l0,0c0,0.1,0,0.2,0,0.2
		c0,0,0,0.1,0,0.1c0,0.1,0,0.2,0,0.3c0,0.1,0.1,0.3,0.1,0.4c0.1,0.3,0.2,0.6,0.4,0.8c0,0,0,0.1,0,0.1c0,0,0,0,0,0.1c0,0,0,0.1,0,0.1
		c0,0.1,0.1,0.1,0.2,0.1c0,0,0,0.1,0.1,0.1c0,0,0.1,0.1,0,0.1c0,0-0.1,0.1-0.1,0.1c0,0-0.1,0.1-0.1,0.2c-0.1,0.1-0.2,0.3-0.3,0.4
		c0,0,0,0.1,0,0.1c0-1.1-0.1-2.1-0.5-2.8c0,0,0,0,0-0.1h0v-0.1C215.4,60.4,215.4,60.4,215.4,60.3 M215.7,60.1
		C215.7,60.1,215.7,60.1,215.7,60.1c0.2-0.1,0.3-0.1,0.4-0.1c0,0,0,0,0,0v0c-0.1,0-0.1,0-0.2,0C215.8,60.1,215.8,60.1,215.7,60.1
		C215.7,60.1,215.7,60.1,215.7,60.1L215.7,60.1z M217.5,62.9c0.1,0,0.1-0.1,0.2-0.1C217.7,62.9,217.6,62.9,217.5,62.9
		c0,0.1,0,0.1-0.1,0.1c-0.1,0-0.1,0-0.2-0.1c-0.1-0.1-0.3,0-0.4,0c-0.1,0-0.2,0.1-0.3,0.2c0.1-0.2,0.2-0.3,0.4-0.3
		c0.1,0,0.1,0,0.2,0C217.3,62.9,217.4,62.9,217.5,62.9 M217.4,62.8C217.4,62.8,217.5,62.8,217.4,62.8
		C217.6,62.8,217.5,62.9,217.4,62.8 M218.5,63.1C218.5,63.1,218.5,63.1,218.5,63.1c0,0.1,0,0.1,0,0.1c0,0-0.1,0.1-0.1,0.1
		c-0.1,0-0.2,0-0.2,0C218.3,63.2,218.4,63.1,218.5,63.1 M218.5,63.1C218.5,63,218.5,63,218.5,63.1c0.1-0.1,0.2,0,0.2,0
		c0.1,0.2-0.1,0.3-0.2,0.4c0,0-0.1,0-0.1,0c0,0,0,0,0,0c0.1,0,0.2-0.1,0.2-0.1C218.7,63.2,218.6,63.1,218.5,63.1 M218.8,64.6
		c0,0.1,0,0.1,0,0.2c0,0.1-0.1,0.1-0.1,0.2c0,0.1,0,0.2,0,0.3c0,0,0,0-0.1-0.1c0,0,0,0,0-0.1c0-0.1,0.1-0.3,0-0.5c0,0,0-0.1,0-0.1
		c0-0.1,0.1-0.1,0.1-0.2c0-0.1,0-0.1-0.1-0.1c0,0-0.1-0.1-0.1-0.1c0-0.1,0.1-0.1,0.1-0.2c0-0.1,0-0.2-0.1-0.3c0,0,0,0,0,0
		c0.1,0,0.1,0.1,0.1,0.2c0,0.1,0.1,0.2,0.1,0.3c0,0.1,0,0.2,0,0.3C218.7,64.4,218.8,64.5,218.8,64.6 M218.3,63.4
		C218.3,63.4,218.3,63.4,218.3,63.4C218.3,63.4,218.3,63.4,218.3,63.4c0.1,0,0.1,0.2,0.2,0.3c0,0.1,0,0.2,0,0.3c0,0.1,0,0.2,0.1,0.2
		c0,0,0.1,0.1,0.1,0.1c0,0.1,0,0.1-0.1,0.1c0,0,0-0.1-0.1-0.1c0-0.1,0-0.1,0-0.2c0-0.1,0-0.1,0-0.1
		C218.4,63.8,218.4,63.6,218.3,63.4 M218.2,65.2C218.2,65.2,218.2,65.2,218.2,65.2c0.1,0.1,0.1,0.3,0,0.3c0-0.2-0.2-0.3-0.2-0.5
		c0,0,0-0.1,0.1-0.2c0-0.1,0.1-0.2,0.1-0.4c0,0,0,0,0,0c0,0,0.1-0.1,0.1-0.2c0,0,0,0.1,0,0.1c0,0.1,0.1,0.2,0.1,0.3
		c0,0.1,0,0.2-0.1,0.3C218.3,64.9,218.2,65,218.2,65.2C218.2,65.1,218.2,65.2,218.2,65.2 M218.3,63.6c0,0.2,0,0.4-0.1,0.5
		c0,0.1-0.1,0.2-0.2,0.3c0,0,0,0.1,0,0.1c-0.1,0-0.1,0-0.2-0.1c0,0.1,0.1,0.1,0.2,0.1c0,0,0,0.1,0,0.1c0,0-0.1-0.1-0.1-0.1
		c0,0,0,0,0,0c0,0.1,0.1,0.1,0.1,0.2c0,0,0,0.1-0.1,0.1c-0.1,0-0.1-0.1-0.1-0.2c0,0,0,0.1-0.1,0.1c-0.1,0-0.2-0.2-0.2-0.3
		c0-0.1,0.2-0.1,0.3-0.2c0,0,0-0.1,0-0.1c0,0,0-0.1-0.1-0.1c0,0,0,0.1,0,0.1c0,0,0,0-0.1,0c-0.1,0-0.2,0-0.2,0c0,0-0.1,0-0.1,0
		c0,0-0.1,0-0.1,0c0,0,0-0.1,0-0.1c0,0,0,0.1,0,0.1c0,0,0.1,0.1,0.1,0.1c0.1,0,0.2,0,0.2,0.1c0,0,0,0.1,0,0.1c0,0.1-0.1,0.2-0.2,0.2
		c0,0,0-0.1,0-0.1c0,0,0,0.1-0.1,0.1c0,0.1-0.1,0.1-0.2,0c0.1,0,0.1-0.1,0.2-0.2c0,0-0.1,0-0.1,0c-0.1,0-0.1,0.1-0.1,0
		c0.1,0,0.2-0.1,0.2-0.1c-0.1,0-0.1,0-0.2,0c0,0,0,0,0,0c-0.1-0.1-0.2-0.3-0.2-0.6c0-0.2,0-0.3,0.1-0.5c0-0.1,0-0.1,0.1-0.1
		c0,0,0.1-0.1,0.1-0.1c0.1,0,0.2,0,0.3,0c0.1,0,0.2,0.1,0.3,0.1c0.1,0,0.2,0,0.3-0.1c0.1,0,0.2,0,0.3,0.1c0,0,0,0.1,0.1,0.1
		C218.2,63.4,218.3,63.5,218.3,63.6 M216.6,63.9c0,0.1,0,0.2,0,0.2c0,0.1-0.1,0.1-0.1,0.2c0,0,0,0,0,0c0,0,0,0,0,0
		c0,0.1,0,0.1,0,0.2c-0.1-0.1-0.1-0.3,0-0.4C216.4,64.2,216.5,64.1,216.6,63.9c-0.1-0.1-0.1-0.3-0.1-0.5c0-0.1,0.1-0.2,0.1-0.2
		c0,0,0,0,0.1,0c0,0,0,0,0,0c0.1-0.1,0.3-0.2,0.5-0.1c-0.1,0-0.1,0-0.2,0c-0.2,0.1-0.3,0.2-0.4,0.3c0,0,0,0,0,0c0,0,0,0.1,0,0.2
		C216.5,63.7,216.5,63.8,216.6,63.9 M216.1,64L216.1,64c0.1-0.1,0.2-0.2,0.2-0.4c0,0,0,0,0,0c0,0.3-0.2,0.4-0.2,0.6
		C216,64.2,216,64.1,216.1,64C216.1,64,216.1,64,216.1,64C216.1,64,216.1,64,216.1,64C216.1,64,216.1,64,216.1,64 M216.3,63.3
		c0,0,0.1-0.1,0.1,0c0,0.1-0.1,0.2-0.1,0.3c0,0,0,0-0.1,0C216.3,63.5,216.3,63.4,216.3,63.3 M216.2,64.1c0-0.1,0.1-0.1,0.1-0.1
		c0-0.1,0.1-0.2,0.1-0.3v0c0,0,0,0,0,0c0.1,0.3-0.1,0.5-0.1,0.7c0,0.1,0,0.2,0.1,0.2c0,0.1,0.1,0.1,0,0.2c-0.1,0-0.1-0.1-0.1-0.2
		c0,0,0-0.1,0-0.1C216.2,64.4,216.2,64.2,216.2,64.1 M216.7,63.4C216.7,63.3,216.7,63.3,216.7,63.4
		C216.7,63.3,216.7,63.3,216.7,63.4c0,0.1-0.1,0.2-0.1,0.3c0,0,0,0,0-0.1C216.6,63.5,216.6,63.4,216.7,63.4 M216.6,62.9
		c0,0,0,0.1,0,0.1c0,0-0.1,0.1-0.1,0.1c-0.1,0-0.2,0.1-0.2,0.2c0,0,0,0.1,0,0.2c0,0,0,0.1,0,0.1c0,0.1,0,0.2-0.1,0.2
		c0,0.1-0.1,0.1-0.1,0.2c0,0,0,0,0,0.1c0,0.1,0,0.2,0,0.3c0,0,0.1,0,0.1,0.1c0,0,0,0.1,0,0.1c0,0,0,0.1,0,0.1c0,0.1,0,0.2,0,0.2
		c0,0,0,0.1,0,0.1c0,0.2,0.1,0.3,0.1,0.4c0,0,0,0,0,0.1c-0.1,0-0.2-0.1-0.2-0.2c0-0.1,0-0.2,0-0.3c0-0.1-0.1-0.2-0.1-0.3
		c0-0.1,0-0.1,0-0.2c0-0.1,0-0.1,0-0.2c0-0.2,0.1-0.4,0.1-0.5c0-0.1,0.1-0.2,0.1-0.3C216.2,63.2,216.3,63,216.6,62.9
		C216.5,62.9,216.5,62.9,216.6,62.9C216.6,62.9,216.6,62.9,216.6,62.9 M216.4,65.9c0,0,0-0.1,0-0.1c0,0,0,0,0-0.1c0,0,0,0,0-0.1
		c0.1-0.1-0.1-0.2-0.1-0.3c-0.1-0.1-0.2-0.3-0.1-0.6c0,0,0,0,0,0c0.1,0.1,0.1,0.2,0.2,0.2c0,0.1,0,0.3,0,0.4c0,0,0.1,0.1,0.1,0.1
		c0,0,0.1,0.1,0.1,0.1c0,0.1,0,0.1-0.1,0.2c-0.1,0.1,0,0.4,0,0.4c0,0,0.1,0.1,0.1,0.1c0,0.1-0.1,0.1-0.1,0.1c-0.1,0-0.1-0.1-0.2-0.2
		c0-0.1,0-0.1,0-0.2C216.4,66,216.4,66,216.4,65.9 M216.8,66c0-0.1,0-0.3,0-0.4c0-0.1,0-0.2-0.1-0.2c0-0.1-0.1-0.2-0.1-0.3
		c0-0.2,0.1-0.3,0.1-0.4c0-0.1,0-0.1,0-0.2v0c0,0,0,0,0,0.1c0,0.1,0,0.1,0,0.1c0,0,0,0,0,0.1c0,0,0,0.1,0,0.1c0,0.1,0,0.1,0,0.2
		c0,0,0,0.1,0,0.1c0,0.1,0,0.2,0,0.3c0,0,0,0.1,0,0.2c0,0.1,0.1,0.2,0.1,0.3c0,0.1-0.1,0.2-0.1,0.3C216.9,66.1,216.8,66.1,216.8,66
		 M216.9,66.4C216.9,66.4,217,66.4,216.9,66.4c0.1,0.1,0.1,0.1,0.1,0.3c0,0-0.1,0-0.1,0C216.9,66.6,217,66.5,216.9,66.4 M217,66.2
		c0-0.1,0-0.2,0.1-0.2c0-0.1,0-0.1,0-0.2c0-0.2-0.2-0.3-0.1-0.5c0,0,0,0.1,0,0.1c0,0,0,0,0.1,0c0.1-0.2-0.1-0.3-0.1-0.5
		c0,0,0,0.1,0.1,0.1c0,0.1,0,0.1,0,0.2c0,0,0,0.1,0,0.1c0,0.1,0.1,0.2,0.1,0.2c0,0.2,0,0.3,0,0.5c0,0.1,0.1,0.1,0.1,0.2
		c0,0,0,0,0,0.1c0.1,0.2,0,0.3-0.1,0.4c0,0-0.1,0-0.1,0.1c0,0,0,0.1-0.1,0.1c0,0,0-0.1,0-0.1c0,0,0-0.1,0-0.1
		C217.1,66.4,217,66.3,217,66.2 M217.4,65.7c0,0-0.1,0.1,0,0.1c-0.1-0.1,0-0.2,0-0.3c0-0.1-0.1-0.2-0.1-0.3c0,0,0.1,0.1,0.1,0.1
		c0,0,0,0,0,0c0,0,0,0,0,0.1c0,0,0,0.1,0,0.1C217.4,65.5,217.3,65.5,217.4,65.7C217.3,65.6,217.4,65.7,217.4,65.7 M218,66.6
		c0-0.1,0.1-0.2,0.1-0.3c0-0.1,0-0.2,0-0.3c0-0.1,0.1-0.2,0.2-0.3c0-0.1,0.1-0.1,0.1-0.2c0,0,0-0.1,0-0.1c0-0.1-0.1-0.1-0.1-0.2
		c0,0,0-0.1,0-0.1c0,0,0.1-0.1,0.1-0.1c0,0,0,0,0-0.1c0,0,0-0.1,0.1-0.2c0,0,0,0,0,0c0,0,0,0,0,0c0,0.1-0.1,0.3,0,0.4c0,0,0,0,0,0.1
		c0,0,0,0,0,0.1c0,0.1,0.1,0.1,0.1,0.2c0,0.1,0,0.1,0,0.1c0,0,0,0.1,0,0.1c0,0.1,0,0.1,0,0.2c0,0-0.1,0.1-0.1,0.1c0,0.1,0,0.1,0,0.2
		c0,0,0,0.1,0,0.1c0,0.1,0,0.2-0.1,0.3c0,0,0,0-0.1,0c0,0,0,0-0.1,0c0,0,0-0.1,0-0.1c0-0.1,0.2-0.3,0.1-0.4c0,0.1,0,0.2,0,0.2
		c0,0-0.1,0.1-0.1,0.1c0,0,0,0,0,0c0,0.1,0,0.2,0,0.2c0,0.1-0.2,0.1-0.3,0.1C217.9,66.7,218,66.7,218,66.6 M218.6,62.9
		c0.1,0,0.1,0,0.2,0.1c0.1,0.2,0.1,0.4,0.2,0.6c0,0,0,0.1,0.1,0.1c0,0.1,0,0.3,0,0.5c0,0.2,0,0.4,0,0.5c0,0.3,0.1,0.6,0.1,0.9
		c0,0,0,0.1,0,0.1c0,0,0,0,0-0.1c0-0.1-0.1-0.1-0.1-0.2c0-0.1,0-0.1,0-0.2c0-0.2,0-0.3-0.1-0.5c0,0-0.1-0.1-0.1-0.1c0,0,0-0.1,0-0.1
		c0-0.2-0.1-0.3-0.1-0.5c0-0.1,0-0.1,0-0.2c0-0.2-0.1-0.4-0.2-0.5c0,0,0.1-0.1,0.1-0.2c0-0.1,0-0.2,0-0.2
		C218.8,63,218.7,63,218.6,62.9c0,0-0.1,0-0.2,0.1c0,0,0,0,0,0c0,0-0.1,0-0.1,0C218.4,63,218.5,62.9,218.6,62.9 M218.1,62.5
		c0.1,0,0.1,0.1,0.2,0.1c0,0,0.1,0,0.2,0c0.1,0,0.1,0.1,0.1,0.1c0,0,0,0,0,0.1c0,0,0,0-0.1,0c-0.1,0-0.1,0.1-0.2,0.1
		c-0.1,0-0.1,0.1-0.2,0.1c0,0-0.1,0-0.1,0c0,0-0.1,0-0.1,0c0,0,0.1,0,0.1-0.1c0.1,0,0.2-0.1,0.2-0.2
		C218.2,62.7,218.1,62.6,218.1,62.5L218.1,62.5z M217.7,62.5c0,0,0.1,0,0.1,0c0,0,0.1,0,0.1,0c0,0,0.1,0.1,0.1,0.1
		c0,0.1,0,0.1,0,0.2c-0.1,0-0.1,0.1-0.2,0.1c0,0,0,0-0.1,0c0,0-0.1,0.1-0.1,0.1c0,0,0-0.1,0-0.1c0,0,0,0,0.1-0.1
		c0.1,0,0.2,0,0.2-0.1c0,0,0,0-0.1-0.1c0,0,0,0,0,0c0,0-0.1-0.1-0.1-0.1C217.8,62.6,217.8,62.5,217.7,62.5
		C217.7,62.5,217.7,62.5,217.7,62.5C217.7,62.5,217.7,62.5,217.7,62.5 M216.8,62.2c0.2,0,0.4,0.1,0.6,0.2c0.1,0,0.2,0.1,0.3,0.1
		c0,0,0,0,0.1,0c0,0,0.1,0,0.1,0c0,0,0,0,0,0c0,0-0.1,0-0.1,0c-0.2-0.1-0.3-0.2-0.6-0.2c0,0,0.1,0,0.1,0c0.2,0,0.4,0.2,0.5,0.3
		c0,0,0.1,0,0.1,0.1c0,0-0.1,0-0.1,0c-0.2-0.1-0.4-0.3-0.6-0.3c0,0,0,0,0.1,0.1c0.1,0,0.2,0.1,0.4,0.1c0,0,0.1,0,0.1,0.1
		c0,0,0.1,0,0.1,0.1c-0.1,0-0.1,0-0.2,0c-0.1,0-0.1-0.1-0.1-0.1c-0.1,0-0.2-0.1-0.3-0.1c-0.1,0-0.1,0-0.2,0c0,0-0.1-0.1-0.2,0
		c0,0.1,0,0,0.1,0.1c0,0,0,0,0,0c0.1,0,0.2,0,0.3,0c0.1,0,0.2,0,0.2,0.1c0,0.1-0.2,0-0.3,0c-0.1,0-0.2,0-0.4,0c-0.1,0-0.2,0-0.2-0.1
		c0,0,0-0.1,0-0.1c0,0,0-0.1,0-0.1c0,0,0,0,0-0.1c0,0,0,0,0.1,0c0,0,0,0,0,0c0,0,0,0,0.1,0c0,0,0,0,0.1,0
		C216.7,62.3,216.8,62.3,216.8,62.2 M216.7,62.1C216.8,62.1,216.8,62.1,216.7,62.1c0.1,0.1,0,0.1,0,0.1c0,0,0,0-0.1,0c0,0,0,0,0,0
		c0,0,0,0-0.1,0c0,0,0,0-0.1,0c0,0,0,0-0.1,0c0,0-0.1,0-0.1,0c0,0-0.1,0-0.1-0.1c0,0,0.1,0,0.2,0c0,0,0.1,0,0.2,0
		C216.6,62.1,216.7,62.1,216.7,62.1 M216.7,62L216.7,62c0,0,0,0.1,0,0.1c-0.1,0-0.3,0.1-0.4,0.1c-0.1,0-0.1,0-0.1-0.1
		C216.4,62.1,216.6,62.1,216.7,62 M216.3,60.8c0.1,0.3,0.2,0.6,0.3,0.9c0,0,0,0.1,0,0.2c0,0-0.2,0.1-0.2,0.1c0,0-0.1,0-0.1,0
		c0,0,0-0.1-0.1-0.1c-0.1-0.2-0.3-0.9-0.4-1.1c0-0.1,0-0.2,0-0.3c0-0.1,0-0.1,0-0.3c0.1,0,0.3-0.1,0.4-0.1c0,0.1,0,0.1,0,0.2
		c0,0.1,0,0.1,0,0.1l0,0.1c0,0,0,0.1,0,0.1C216.2,60.7,216.3,60.8,216.3,60.8 M216.2,59.7C216.2,59.7,216.3,59.7,216.2,59.7
		c0,0-0.1,0.1-0.1,0.1c-0.2,0-0.4,0.1-0.5,0.2c0,0-0.1,0.1-0.1,0c0,0,0,0,0.1-0.1c0,0,0.1,0,0.1,0c0.1-0.1,0.2-0.1,0.4-0.2
		C216.1,59.8,216.2,59.7,216.2,59.7L216.2,59.7z M216.2,59.7c0,0-0.1,0-0.1,0c0,0,0-0.1,0-0.1c0,0,0.1,0,0.1,0
		C216.2,59.6,216.2,59.6,216.2,59.7 M215.9,58.5C215.9,58.5,215.9,58.5,215.9,58.5c0.1,0.2,0.1,0.4,0.1,0.6c0,0.1,0,0.2,0,0.2
		c0,0.1,0,0.1,0.1,0.2c0,0-0.1,0-0.1,0c-0.2,0-0.4,0-0.6,0.1c0,0,0,0,0,0c0,0,0,0,0,0c0-0.1,0-0.1,0-0.1c0,0,0-0.1,0-0.1
		c0-0.1-0.1-0.2-0.1-0.1c0,0,0,0.1,0,0.1c0,0.1,0,0.1,0,0.3c0,0.1,0,0.3,0,0.3v0c0,0-0.1,0-0.1,0c0,0-0.1,0-0.1,0
		c-0.1,0-0.1,0-0.2,0c-0.1,0-0.1,0-0.2,0c0,0-0.1-0.1-0.1-0.1c-0.1,0-0.2,0.1-0.3,0.1c0-0.1,0.1-0.2,0.2-0.4
		c0.1-0.2,0.2-0.3,0.3-0.4v0c0.1-0.1,0.1-0.1,0.2-0.2c0.1-0.1,0.1-0.1,0.2-0.2c0,0,0,0,0.1-0.1c0,0.1-0.1,0.2-0.2,0.3
		c0,0-0.1,0.1-0.1,0.1c0,0-0.1,0-0.1,0.1l0,0c0,0.1,0.1,0.1,0.1,0c0.1,0,0.1-0.1,0.2-0.2c0.1-0.2,0.3-0.5,0.5-0.6
		C215.9,58.4,215.9,58.4,215.9,58.5 M213,63.5c0,0-0.1,0-0.1,0c0-0.4,0-0.9,0-1.3c0-0.1,0-0.2,0-0.3c0-0.1,0-0.2,0-0.3
		c0-0.2,0-0.5,0-0.7c0.1,0,0.1-0.1,0.2-0.1c0,0,0,0,0,0c0,0.1,0,0.2,0,0.4c0,0.1,0,0.3,0,0.4c0,0,0,0.1,0,0.1c0,0,0,0.1,0,0.1
		c0,0.1,0,0.1,0,0.2c0,0,0,0,0,0c0,0,0,0,0,0C213,62.4,213,63,213,63.5 M212.9,63.7c0,0.2,0,0.4,0,0.6c0,0.1,0,0.2,0,0.2
		c0,0.1,0,0.2,0,0.2c0,0,0,0-0.1,0c0-0.4,0.1-0.8,0.1-1.2c0,0,0,0,0,0C212.9,63.6,212.9,63.7,212.9,63.7 M213.3,61.3
		c0,0,0-0.1,0.1-0.1c0-0.1,0.1-0.2,0.2-0.3c0,0,0.1-0.1,0.1-0.1c0.1,0,0.3,0,0.4,0c0,0,0.1,0,0.1,0c0,0,0.1,0,0.1,0.1
		c0.1,0,0.1,0,0.2,0c0,0.1-0.1,0.1-0.2,0.2c-0.1,0.1-0.1,0.1-0.2,0.2c-0.1,0.1-0.3,0.3-0.4,0.4c-0.1,0.2-0.2,0.3-0.4,0.4
		c-0.1,0.1-0.2,0.2-0.2,0.4c0,0,0,0.1-0.1,0.1c0-0.2,0-0.5,0.1-0.7c0-0.1,0.1-0.2,0.1-0.3C213.3,61.5,213.3,61.4,213.3,61.3
		 M213.3,60.7C213.3,60.6,213.3,60.6,213.3,60.7c0-0.2,0.1-0.2,0.1-0.3c0,0,0,0.1,0,0.2c0,0.1,0,0.2,0,0.3c0,0.1,0,0.1,0,0.2
		c0,0.1-0.1,0.1-0.1,0.2C213.3,61,213.2,60.8,213.3,60.7 M213.7,60.7c0-0.1,0-0.2,0-0.3h0C213.7,60.5,213.7,60.6,213.7,60.7
		 M215,60.2c0.1,0,0.1,0,0.2-0.1h0c0,0,0,0,0,0c0,0,0,0,0,0c0,0.1-0.1,0.2-0.1,0.2c0,0-0.1,0-0.2,0c-0.1-0.1-0.4-0.1-0.5,0
		c0,0-0.1,0.1-0.2,0c0,0,0.1-0.1,0.1-0.1c0.1,0,0.2-0.1,0.3-0.1c0,0,0.1,0,0.2,0c0,0.1,0,0.1,0.1,0.1
		C214.8,60.2,214.9,60.2,215,60.2L215,60.2C214.9,60.2,214.9,60.2,215,60.2 M213.8,62.8c-0.1,0-0.1,0.1-0.1,0.2
		c-0.1,0.1-0.1,0.3-0.2,0.4c-0.1,0.3-0.3,0.6-0.4,0.9c0,0,0,0.1,0,0.1c0,0,0-0.1,0-0.1c0-0.2,0-0.5,0-0.7c0-0.1,0-0.2,0-0.3
		c0-0.1,0-0.1,0-0.2c0-0.1,0-0.1,0-0.2c0-0.1,0-0.1,0-0.2c0,0,0-0.1,0-0.1c0.1-0.2,0.2-0.4,0.3-0.6c0.1-0.2,0.2-0.3,0.4-0.5
		c0.2-0.2,0.4-0.3,0.6-0.5c0.1-0.1,0.2-0.2,0.3-0.3c0,0,0.1-0.1,0.1-0.1c0,0,0,0.1,0,0.1c-0.1,0.1-0.1,0.2-0.2,0.3
		c-0.1,0.2-0.3,0.4-0.4,0.6c-0.1,0.1-0.1,0.2-0.2,0.3c-0.2,0.3-0.4,0.6-0.6,0.9c-0.1,0.1-0.1,0.2-0.2,0.3c0,0,0,0,0.1-0.1
		c0.3-0.4,0.5-0.9,0.8-1.3c0.1-0.2,0.3-0.4,0.5-0.6c0.1-0.1,0.2-0.3,0.3-0.5c0-0.1,0.1-0.1,0.1-0.2c0,0,0.1,0.1,0.1,0.1
		c0,0,0,0.1-0.1,0.1c-0.1,0.1-0.1,0.2-0.2,0.3c-0.1,0.1-0.2,0.3-0.2,0.4c-0.1,0.3-0.3,0.5-0.5,0.8c-0.1,0.1-0.2,0.3-0.2,0.4
		c-0.2,0.4-0.4,0.7-0.7,1.1c0,0,0,0.1-0.1,0.1c0,0,0-0.1,0-0.1c0.1-0.2,0.2-0.4,0.3-0.6c0.1-0.1,0.1-0.2,0.2-0.4
		C213.8,62.9,213.9,62.8,213.8,62.8 M214.2,60.7c0-0.1,0-0.1,0-0.2c0-0.1,0.1-0.1,0.2-0.1c0.1,0,0.3,0,0.3,0.1c0,0.1,0,0.3-0.1,0.3
		C214.6,60.9,214.3,60.8,214.2,60.7 M214,60.3c0,0-0.1,0.1-0.2,0C213.9,60.3,214,60.3,214,60.3c0-0.1,0-0.1,0-0.1
		c0.1,0,0.1,0,0.2-0.1c0,0,0,0,0,0C214.2,60.2,214.1,60.3,214,60.3 M214,60.7c-0.1,0-0.1,0-0.1-0.1c0-0.1,0-0.1,0-0.1
		C214,60.5,214,60.6,214,60.7 M213.1,65.3c0,0.2,0,0.4,0,0.6c-0.2,0-0.4,0-0.5,0c0,0,0,0-0.1,0c0,0.1,0,0.1,0.1,0.1c0,0,0.1,0,0.1,0
		c0.1,0,0.1,0,0.2,0c0,0,0.1,0,0.1,0c0,0,0.1,0,0.1,0c0.1,0,0.1,0.1,0.1,0.1c0,0.1,0.1,0.3,0.1,0.5c0,0.1,0,0.2,0.1,0.4
		c0,0-0.1,0-0.1,0c-0.1,0-0.2,0-0.3,0c-0.1,0-0.1,0-0.2,0c-0.2-0.5-0.3-1.1-0.4-1.6c0.1,0,0.2-0.1,0.2-0.1c0.1,0,0.3,0,0.4-0.1
		C213,65.3,213,65.3,213.1,65.3 M213.3,66.3c0-0.1,0.1-0.1,0.1-0.2c0-0.1,0.1-0.1,0.1-0.2c0.1-0.2,0.2-0.3,0.4-0.5
		c0-0.1,0.1-0.1,0.1-0.2c0.1-0.1,0.1-0.2,0.2-0.2c0,0,0-0.1,0.1-0.1c0,0,0,0.1,0,0.1c0,0.2-0.1,0.4-0.2,0.6c0,0-0.1,0.2,0,0.2
		c0,0,0.1-0.1,0.1-0.1c0.1-0.2,0.1-0.3,0.2-0.5c0.1-0.2,0.1-0.3,0.2-0.5c0-0.1,0-0.1,0.1-0.2c0,0,0.1,0,0.1-0.1c0,0,0,0,0,0
		c0,0.1,0,0.2,0,0.3c0,0.2-0.1,0.3-0.1,0.5c0,0.2-0.1,0.3-0.1,0.5c0,0.1,0,0.2-0.1,0.2c-0.1,0.2-0.2,0.5-0.3,0.7c0,0,0,0.1-0.1,0.1
		c0,0.1,0,0.1-0.1,0.1c0,0-0.1,0-0.1,0c-0.1,0-0.3-0.1-0.4-0.2c0-0.1,0-0.2,0-0.3C213.3,66.6,213.3,66.4,213.3,66.3 M214.3,64.4
		c0,0.1-0.1,0.2-0.2,0.3c0,0.1-0.1,0.2-0.2,0.2c-0.1,0.1-0.3,0.3-0.4,0.4c-0.1,0.1-0.2,0.2-0.3,0.4c0,0,0,0-0.1,0c0-0.1,0-0.1,0-0.2
		c0-0.2,0-0.5,0-0.7c0-0.2,0.1-0.3,0.1-0.4c0,0,0-0.1,0.1-0.1c0.1-0.2,0.2-0.4,0.3-0.6c0.1-0.1,0.2-0.3,0.3-0.4
		c0.2-0.3,0.4-0.5,0.5-0.8c0.1-0.2,0.2-0.4,0.3-0.7c0.1-0.1,0.2-0.3,0.2-0.4c0.1-0.1,0.1-0.2,0.2-0.3c0,0,0,0,0,0c0,0,0,0.1,0,0.1
		c0,0,0,0.1,0,0.1c-0.1,0.5-0.3,0.9-0.4,1.4c0,0.1-0.1,0.2-0.1,0.3c0,0.1-0.1,0.2-0.1,0.3c0,0,0,0.1-0.1,0.1c0,0,0,0.1-0.1,0.1
		c0,0.1-0.1,0.1-0.1,0.2c0,0-0.1,0.1-0.1,0.1c-0.1,0.1-0.1,0.2-0.1,0.3c0,0,0,0.1,0,0.1c0.1,0,0.1-0.1,0.1-0.1
		c0-0.1,0.1-0.1,0.1-0.2c0.2-0.3,0.3-0.7,0.5-1c0.1-0.4,0.3-0.7,0.4-1.1c0-0.1,0.1-0.2,0.1-0.3c0,0,0-0.1,0-0.1c0,0.1,0,0.2,0,0.3
		c0,0.1-0.1,0.2-0.1,0.3c-0.1,0.2-0.1,0.4-0.2,0.6c-0.1,0.4-0.3,0.8-0.5,1.1c0,0.1-0.1,0.2-0.1,0.3
		C214.4,64.2,214.3,64.3,214.3,64.4 M215.3,60.6L215.3,60.6c0-0.1,0-0.1,0-0.1c0,0,0,0,0,0c0,0,0,0,0,0c0,0,0,0,0,0
		C215.3,60.4,215.3,60.5,215.3,60.6C215.3,60.5,215.3,60.6,215.3,60.6C215.3,60.6,215.3,60.6,215.3,60.6 M215.3,58.3
		c-0.1,0.1-0.2,0.1-0.3,0.2c-0.2,0.1-0.4,0.3-0.6,0.4c0,0-0.1,0.1-0.1,0.1c-0.1,0.1-0.1,0.1-0.1,0.2c0.1,0,0.1-0.1,0.2-0.1
		c0.1-0.1,0.3-0.3,0.4-0.4c0,0,0,0,0,0v0c0.1-0.1,0.2-0.1,0.3-0.2C215.2,58.5,215.3,58.4,215.3,58.3
		C215.3,58.4,215.4,58.4,215.3,58.3L215.3,58.3c0.1,0,0.1,0,0.2,0c0,0,0.1,0,0.1,0c0.1,0,0.2-0.1,0.2,0c-0.1,0-0.1,0.1-0.2,0.1
		c-0.1,0.1-0.2,0.1-0.3,0.2c0,0-0.1,0-0.1,0.1c-0.1,0.1-0.2,0.2-0.3,0.3c-0.1,0.1-0.1,0.1-0.2,0.2c-0.1,0.1-0.2,0.3-0.3,0.4
		c-0.2,0.3-0.4,0.5-0.6,0.7c-0.1,0.1-0.2,0.1-0.3,0c0,0,0.1,0,0.1,0c0.1,0,0.1-0.1,0.2-0.2c0,0,0.1-0.1,0.1-0.1
		c-0.1,0-0.1,0.1-0.1,0.1c-0.1,0-0.1,0.1-0.2,0.1c-0.2,0-0.3-0.1-0.3-0.3c0,0,0-0.2,0-0.3c0-0.1,0.1-0.1,0.2-0.2
		c0.1-0.1,0.2-0.2,0.3-0.2c0,0,0.1-0.1,0.1-0.1c0.1-0.1,0.2-0.1,0.2-0.1c0.2-0.1,0.4-0.2,0.6-0.3v0c0.1,0,0.2-0.1,0.3-0.1h0
		C215.2,58.3,215.3,58.3,215.3,58.3 M214.9,57.8C214.9,57.8,214.9,57.8,214.9,57.8c0-0.1,0-0.2,0-0.2c0,0.1,0,0.2,0,0.3
		c0,0.1-0.1,0.2-0.1,0.2c-0.2,0.1-0.4,0.2-0.6,0.3c-0.1-0.1-0.1-0.2-0.1-0.4c0-0.1,0-0.1,0-0.2c0,0,0-0.1,0-0.1c0,0,0.1,0.1,0.1,0.1
		c0.1,0.1,0.2,0.1,0.3,0.1c0,0,0.1,0,0.1,0c0.1,0,0.1,0,0.2,0C214.9,58,214.9,57.9,214.9,57.8C214.9,57.8,214.9,57.8,214.9,57.8
		 M215,58.1c0-0.1,0-0.1,0-0.1c0,0,0.1,0,0.1,0.1C215.1,58.1,215,58.1,215,58.1 M214,56.7c0-0.1,0-0.1,0.1-0.2c0,0,0,0,0-0.1
		c0.1-0.1,0.3-0.2,0.4-0.2c0,0,0-0.1,0-0.1c0,0,0,0.1,0,0.1c0.1,0,0.2,0.1,0.3,0.2c0.1,0.1,0.2,0.2,0.2,0.3c0,0.1,0,0.1,0,0.2
		c0,0,0.1,0.1,0.1,0.2c0,0.3-0.2,0.5-0.3,0.7c-0.1,0.1-0.2,0.1-0.3,0.1c-0.1,0-0.2-0.1-0.3-0.2c-0.1-0.1-0.1-0.1-0.2-0.2
		c-0.1-0.1-0.1-0.2-0.1-0.4C213.9,56.9,213.9,56.9,214,56.7 M214,58C214,58,214,58,214,58c0,0.2,0,0.3,0.1,0.4c0,0,0,0.1,0,0.1
		c0,0-0.1,0.1-0.2,0.1c-0.1-0.2-0.1-0.4-0.1-0.6C213.9,58,214,58,214,58 M213.8,58.8c0,0,0.1,0,0.1,0.1c0,0-0.1,0.1-0.2,0.1
		c0,0,0,0,0,0c0,0,0-0.1,0.1-0.1C213.8,59,213.8,58.9,213.8,58.8C213.8,58.9,213.8,58.8,213.8,58.8 M212.9,59.5
		c0-0.2,0.1-0.4,0.1-0.6c0-0.2,0.1-0.3,0.2-0.5c0,0,0.1-0.1,0.1-0.1c0,0,0,0,0,0c0,0,0.1-0.1,0.2-0.1c0,0,0,0,0,0
		c0.1,0,0.1-0.1,0.2-0.1h0c0,0.2,0,0.3,0.1,0.4c0,0.1,0,0.1,0.1,0.2c-0.1,0.1-0.2,0.1-0.3,0.2c0,0,0-0.1-0.1-0.1
		c0,0-0.1,0.1-0.1,0.1c0,0,0,0.1,0,0.1c0,0,0,0.2,0,0.3c0,0,0,0.2,0,0.3c0,0,0,0.1,0,0.1c-0.1,0-0.3-0.1-0.5-0.1
		C212.9,59.6,212.9,59.5,212.9,59.5L212.9,59.5z M212.8,60c0.2,0,0.4,0.1,0.5,0.1c0,0,0,0,0,0C213.1,60.1,213,60,212.8,60
		C212.8,60,212.8,60,212.8,60 M211.8,60.3C211.8,60.3,211.8,60.3,211.8,60.3c0-0.1,0-0.1,0-0.1c0,0,0-0.1,0-0.1
		c0.2,0,0.5,0.1,0.7,0.1c0,0,0.1,0,0.1,0c0,0,0.1,0.1,0.1,0.1c0,0,0.1,0,0.1,0c0.1-0.1,0-0.2-0.1-0.2c0,0,0-0.1,0-0.1
		c0,0,0.1,0,0.1,0c0.1,0,0.3,0.1,0.4,0.1c0,0.2-0.1,0.2-0.2,0.4c-0.1,0.1-0.1,0.2-0.2,0.2c-0.1,0-0.2,0-0.2,0c-0.1,0-0.1,0-0.2,0
		c-0.1,0-0.1,0-0.2-0.1c-0.2-0.1-0.4-0.2-0.6-0.2C211.7,60.4,211.8,60.4,211.8,60.3 M211.7,60C211.7,60,211.8,60,211.7,60
		c0,0,0,0.1,0,0.1c0,0-0.1,0,0,0.1c0,0,0,0,0,0.1c0,0,0,0,0,0c0,0,0,0,0,0c0,0-0.1,0.1-0.1,0.1c0,0,0,0,0,0
		C211.6,60.3,211.7,60.2,211.7,60 M211.6,60C211.6,59.9,211.6,59.9,211.6,60c0.1,0.1,0,0.2,0,0.2c0,0.1-0.1,0.2-0.1,0.2
		c0,0-0.1,0-0.1,0c0,0,0.1-0.1,0.1-0.1C211.5,60.2,211.6,60.1,211.6,60 M210.6,59.3C210.6,59.3,210.6,59.3,210.6,59.3
		c0.1,0.1,0.2,0.1,0.2,0.2c-0.1,0-0.1,0-0.2,0C210.6,59.4,210.5,59.3,210.6,59.3 M210.9,59.6c0,0-0.1,0-0.1-0.1c-0.1,0-0.2,0-0.3,0
		C210.5,59.3,211,59.4,210.9,59.6 M210.5,59.6C210.6,59.6,210.6,59.6,210.5,59.6c0.2,0,0.2,0,0.3,0c0,0,0.1,0,0.1,0.1c0,0,0,0-0.1,0
		c-0.1,0-0.1-0.1-0.2,0c0,0-0.1,0-0.1,0C210.5,59.7,210.5,59.6,210.5,59.6 M210.6,59.7c0.1-0.1,0.2,0,0.3,0c0,0,0.1,0,0.1,0.1
		c-0.1,0-0.2,0-0.3,0C210.6,59.8,210.6,59.8,210.6,59.7 M210.7,59.9C210.7,59.9,210.7,60,210.7,59.9C210.6,60,210.6,59.9,210.7,59.9
		c0-0.1,0.2-0.1,0.2,0C210.9,60,210.8,59.9,210.7,59.9 M210.9,60C210.9,60,211,60,210.9,60c0.1-0.1,0-0.1,0-0.2c0,0,0.1,0.1,0.1,0.1
		c0,0,0.1,0.1,0.1,0.1c0,0,0.1,0,0.1-0.1c0,0-0.1,0-0.1,0c-0.1,0-0.1-0.1-0.1-0.2c0,0,0-0.1,0-0.1c0-0.1,0-0.1,0-0.1v0c0,0,0,0,0,0
		c0.1,0,0.1,0.1,0.2,0.1c0.1,0.1,0.2,0.2,0.2,0.3c0,0,0.1,0,0.1,0.1c0,0.1-0.1,0.2-0.1,0.2c-0.1,0-0.1-0.1-0.2-0.1
		c-0.1,0-0.2,0-0.3,0C210.9,60.1,210.9,60,210.9,60 M211.9,63.9c-0.1-0.4-0.2-0.8-0.3-1.2c0-0.1,0-0.2-0.1-0.3
		c0-0.1-0.1-0.2-0.1-0.3c-0.1-0.6-0.3-1.2-0.5-1.9c0,0,0,0,0,0c0.1,0,0.2,0,0.3,0.1c0,0.1,0,0.2,0.1,0.1c0,0,0,0.1,0,0.1
		c0.1,0,0.1,0,0.2,0c0.4,0.2,0.7,0.3,1.2,0.4c0,0.4,0,0.9,0,1.4c0,0.2,0,0.3,0,0.5c0,0.3,0,0.6-0.1,0.9c0,0.2-0.1,0.4-0.1,0.6
		c0,0.1,0,0.2,0,0.2c0,0.1,0,0.2,0,0.2c0,0,0,0,0.1,0c0.1,0.1,0.3,0.1,0.4,0.2c0,0,0,0.1,0,0.1c-0.3,0-0.5,0.1-0.8,0.1
		C212.1,64.8,212,64.4,211.9,63.9 M212.6,68.7c0.1,0,0.1,0.1,0.1,0.2C212.6,68.8,212.6,68.7,212.6,68.7 M212.7,68
		c-0.1,0-0.3,0.1-0.4,0.1c-0.1,0-0.1,0-0.2,0c-0.1,0-0.2,0-0.3,0c0,0-0.1,0-0.1-0.1c0,0-0.1-0.1-0.1-0.2c0,0,0,0,0,0c0,0,0,0,0,0
		c0,0,0,0,0-0.1c0,0,0-0.1-0.1-0.1c-0.1,0-0.1,0-0.1,0.1c0,0,0,0,0,0c0,0,0,0,0,0c0,0-0.1,0-0.1,0c0,0-0.1,0-0.1,0
		c-0.1,0-0.2-0.1-0.2-0.2c0-0.1,0-0.1,0-0.2c0,0,0-0.1,0-0.1c0,0,0.1-0.1,0-0.2c0,0,0,0-0.1,0c0,0,0,0,0-0.1c0,0-0.1,0-0.1,0
		c0,0-0.1,0.2-0.1,0.2c0,0.1,0,0.2,0,0.3c0,0.1,0.1,0.1,0.1,0.1c0,0.1,0.1,0.1,0.2,0.2c0,0,0,0,0,0c0,0.1,0.2,0.1,0.2,0.2
		c0.1,0,0.1,0,0.2,0.1c0,0.1,0.2,0.1,0.2,0.1c0.1,0,0.1,0,0.2,0.1c0.2,0.1,0.4,0.2,0.6,0.2c0.1,0,0.2,0.1,0.2,0.1
		c0,0,0.1,0.1,0.1,0.1c0,0,0,0,0,0c0,0-0.1-0.1-0.1,0c0,0,0,0.1,0.1,0.1c0,0,0,0,0,0c0,0,0,0,0.1,0c0,0-0.1-0.1-0.1-0.1
		c0,0,0-0.1-0.1-0.1c0,0,0,0,0,0c0,0,0,0,0,0c0,0,0,0.1,0,0.1c0,0-0.1,0-0.1-0.1c0,0,0,0,0,0.1c0,0,0,0,0,0c0,0,0,0.1,0,0.1
		c0,0,0,0.1,0,0.1c0,0.1,0,0.2,0,0.3c-0.1-0.1,0-0.2,0-0.3c0,0,0-0.1-0.1-0.2c-0.2-0.2-0.5-0.4-0.8-0.4c-0.1,0-0.2-0.1-0.3-0.1
		c-0.2-0.1-0.4-0.1-0.6-0.2c-0.1-0.1-0.2-0.1-0.2-0.2c0,0-0.1-0.1-0.1-0.2c0,0,0-0.1-0.1-0.2c0-0.1,0-0.1,0-0.1c0-0.1,0-0.1,0-0.2
		c0-0.1,0.1-0.3,0.2-0.4c0.1-0.1,0.1-0.2,0.2-0.3c0.1-0.1,0.2-0.2,0.3-0.3c0.1-0.1,0.1-0.2,0.3-0.3c0.1,0,0.1-0.1,0.2-0.1
		c0.2-0.1,0.5-0.2,0.7-0.2c0.1,0.4,0.3,0.9,0.4,1.4c0,0.1,0,0.1,0,0.2c-0.1,0-0.3-0.1-0.4,0c-0.1,0,0,0.1,0.1,0.1c0,0,0,0,0,0
		c0,0-0.1,0-0.1,0.1c0,0,0,0,0,0c0,0-0.1,0-0.1,0.1c0,0.1,0,0.1,0.1,0.1c0,0,0.1-0.1,0.1-0.1c0.1,0,0.3-0.1,0.4-0.1
		c0.1,0.2,0.1,0.4,0.1,0.6c-0.1,0-0.3,0-0.4,0c-0.1,0-0.1,0-0.2,0c0,0,0,0,0,0.1c0,0.1-0.1,0.1-0.1,0c0,0.1,0.1,0.2,0.2,0.2
		c0,0,0,0,0,0c0.2,0,0.4-0.1,0.5-0.1C212.8,68,212.7,68,212.7,68 M213,68C213,67.9,213,67.9,213,68C213,67.9,213,67.9,213,68
		c0.2-0.1,0.4-0.1,0.6-0.1c0,0,0.1,0,0.1,0C213.5,67.9,213.2,67.9,213,68 M213.5,67.7c-0.2,0-0.4,0-0.6,0c0-0.2-0.1-0.4-0.1-0.5
		c0.2,0,0.4,0,0.6,0.1c0,0,0,0.1,0.1,0.1c0,0,0.1,0.1,0.1,0.1c0,0,0,0.1,0.1,0.1c0,0,0,0,0.1,0c0,0,0.1,0,0.1,0.1c0,0-0.1,0-0.1,0.1
		C213.7,67.8,213.6,67.7,213.5,67.7 M213.9,68.1C214,68.1,214,68.1,213.9,68.1C214,68.1,214,68.1,213.9,68.1
		C214.1,68.2,213.9,68.2,213.9,68.1 M214.5,67.7c0,0.1,0,0.2-0.1,0.2c0,0,0,0-0.1,0c-0.1,0-0.1,0.3-0.2,0.2c0-0.1,0.1-0.1,0.1-0.1
		c0,0-0.1,0-0.1-0.1c0-0.1,0.1-0.1,0.1-0.2c0,0,0,0,0,0c0,0-0.1,0-0.1,0.1c0,0-0.1,0.1-0.1,0.1c0,0,0,0.1-0.1,0
		c0-0.1,0.1-0.1,0.1-0.2c0,0,0,0,0,0c-0.1,0-0.1,0.1-0.1,0.1c0,0,0,0.1-0.1,0.2c0,0,0,0,0,0c0,0,0,0,0,0c0,0,0,0,0,0
		c0-0.1,0-0.2,0.1-0.2c0-0.1-0.1,0.1-0.1,0.1c0,0,0,0.1,0,0.1c0,0,0-0.1,0-0.2c0,0,0.1,0,0.1-0.1c0,0-0.1,0-0.1,0c0,0,0,0,0,0
		c0,0,0-0.1,0-0.1c0,0,0.1-0.1,0.1-0.1c0,0,0-0.1,0.1-0.1c0.1,0,0.2,0,0.3,0c0.1,0,0.1,0,0.2,0C214.5,67.6,214.5,67.6,214.5,67.7
		C214.6,67.7,214.5,67.7,214.5,67.7 M214,67.5c0-0.1,0.1-0.2,0.1-0.3h0C214.1,67.3,214.1,67.4,214,67.5
		C214.1,67.5,214.1,67.5,214,67.5 M214.8,64.6c0,0.4,0,0.8,0,1.2c0,0.5-0.1,0.9-0.1,1.4c-0.1,0-0.2,0-0.3-0.1c-0.1,0-0.2,0-0.3,0
		c0.2-0.5,0.4-1.1,0.5-1.6c0.1-0.3,0.2-0.7,0.2-1c0,0,0,0,0,0C214.9,64.5,214.8,64.6,214.8,64.6 M214.7,64.1
		c-0.1,0.1-0.1,0.1-0.2,0.2c0,0-0.1,0.1-0.1,0.1c0.2-0.5,0.5-1,0.6-1.6c0.1-0.3,0.2-0.6,0.3-0.9c0.1-0.3,0.1-0.6,0.1-1c0,0,0,0,0,0
		c0,0,0,0,0,0c0.1,0,0.1,0.1,0.1,0.2c0.1,0.2,0.1,0.4,0.2,0.6c0,0.1,0,0.3,0.1,0.5c0,0.1,0,0.2,0,0.2c0,0.1,0,0.2,0,0.2
		c0,0.1-0.1,0.2-0.1,0.3c0,0.1-0.1,0.2-0.2,0.2c-0.1,0.2-0.2,0.3-0.3,0.4C215,63.8,214.9,64,214.7,64.1 M215.3,65.4
		c0-0.4,0-0.8,0-1.1c0,0,0-0.1,0-0.1c0-0.1,0-0.2,0.1-0.2c0,0,0.1-0.1,0.1-0.1c0,0,0.1-0.1,0.1-0.1c0-0.1,0.1-0.1,0.1-0.2
		c0,0,0,0,0,0c0,0.8-0.1,1.3-0.2,2c0,0.2,0,0.4-0.1,0.6C215.3,65.9,215.3,65.7,215.3,65.4 M215.4,66.8c0,0-0.1,0-0.1,0
		c-0.1-0.4-0.2-0.8-0.2-1.2c0-0.4-0.1-0.9-0.1-1.3c0,0,0.1,0,0.1,0c0.1,0,0,0.2,0,0.3c0,0.3,0,0.7,0.1,1c0,0.2,0,0.4,0.1,0.6
		C215.3,66.4,215.4,66.6,215.4,66.8 M214.9,67c0-0.5,0-1,0-1.5c0,0,0,0,0,0c0,0,0,0,0,0c0,0,0,0.1,0,0.1c0,0.2,0.1,0.4,0.1,0.6
		c0,0.2,0.1,0.5,0.1,0.7c-0.1,0-0.1,0-0.2,0.1C215,67,215,67,214.9,67 M216.2,67.8c-0.1-0.1-0.2-0.1-0.3-0.2c0,0-0.1,0-0.1,0
		c0,0,0.1,0,0.1,0C215.9,67.7,216,67.7,216.2,67.8C216.1,67.8,216.2,67.8,216.2,67.8c-0.1,0.1-0.2,0-0.2,0c0,0,0,0-0.1-0.1
		c0,0-0.1,0-0.1,0c0,0-0.1,0-0.1,0c0,0.1,0.1,0.1,0.2,0.1c0,0,0,0,0,0c0,0,0,0,0,0c0,0,0,0,0,0c0.1,0,0.1,0.1,0,0.1
		c-0.1,0-0.2,0-0.2-0.1c-0.1,0-0.2,0-0.3,0c-0.1,0-0.1-0.1-0.2-0.1c-0.1-0.1-0.1-0.1-0.2-0.1c0-0.1,0.1-0.2,0.1-0.2
		c0,0,0.2-0.1,0.3-0.1c0,0,0.1,0,0.2,0c0,0,0.1,0,0.1,0.1c0,0,0.1,0.1,0.1,0.1c0.1,0,0.2,0,0.2,0.1c0,0,0.1,0,0.1,0c0,0,0,0,0,0
		c0,0,0,0,0,0c-0.1,0-0.2,0-0.2-0.1c0,0,0,0,0,0C216,67.6,216.1,67.7,216.2,67.8C216.2,67.7,216.2,67.8,216.2,67.8 M219.2,67.5
		c0,0.1,0.1,0.1,0.1,0.2c0,0-0.1,0.1-0.1,0.1c0,0,0-0.1,0-0.1c0,0,0,0,0,0c0,0,0-0.1-0.1,0c0,0,0,0.1,0,0.1c0,0.1-0.1,0.2-0.2,0.2
		c0-0.1,0.1,0,0.1-0.1c0-0.1,0-0.1-0.1-0.1c0,0,0,0,0,0c0,0-0.1-0.1-0.1-0.1c0,0,0.1,0.1,0,0.1c0,0-0.1,0-0.2,0
		c-0.1,0-0.2,0-0.2-0.1c0,0,0-0.1-0.1-0.1c0,0-0.1,0-0.1-0.1c0,0,0,0-0.1-0.1c0,0-0.1,0-0.1-0.1c-0.1-0.1-0.3-0.1-0.5-0.1
		c-0.3,0-0.6,0-0.9-0.1c-0.1,0-0.2,0-0.3-0.1c-0.1,0-0.2,0-0.3,0c-0.1,0-0.1-0.1-0.2-0.1c0-0.2-0.1-0.4-0.2-0.5c0-0.1,0-0.1,0-0.3
		c0-0.1,0-0.1,0-0.2c0-0.1,0-0.2,0-0.3c0-0.1,0.1-0.3,0.1-0.3c0,0,0.1,0.1,0.1,0.1c0.1,0,0.2,0.1,0.2,0.1c0,0,0.1,0.1,0.1,0.1
		c0.1,0.1,0.1,0.4,0.1,0.5c0,0,0,0,0,0.1c-0.1,0-0.2,0-0.3,0.1c0,0.1,0.2,0,0.2,0c0.1,0,0.2,0,0.3,0.1c0,0,0.1,0.1,0.2,0.1
		c0.1,0,0.3,0,0.4,0.1c0.1,0,0.3,0,0.4,0c0.2,0,0.4,0.1,0.5,0.2c0,0,0.1,0,0.1,0c0,0,0,0,0.1,0c0.1,0,0.1,0,0.2,0
		c0.1,0,0.1,0,0.2,0.1c0,0,0.1,0,0.2,0.1c0,0,0,0,0.1,0c0.1,0,0.1,0,0.1,0c0,0,0.1,0,0.1,0.1c0.1,0,0.2,0.1,0.2,0.2
		C219.3,67.5,219.3,67.4,219.2,67.5 M220,67.5c-0.1,0-0.1,0-0.2,0c-0.1,0-0.2,0-0.3,0c-0.1,0-0.2,0-0.3,0c0.1,0,0.2,0,0.3,0
		C219.7,67.3,220,67.3,220,67.5C220.1,67.4,220.1,67.5,220,67.5C220.1,67.5,220,67.5,220,67.5 M220.7,67.2c0,0,0.1,0.1,0.1,0.1
		c0,0,0,0,0,0c-0.1,0-0.1-0.1-0.2-0.1c0,0,0,0,0,0c0,0.1,0.2,0.1,0.1,0.2c0,0.1-0.1,0.1-0.2,0.1c0,0,0,0,0-0.1
		c0-0.1-0.1-0.2-0.2-0.1c0,0.1,0.1,0.1,0.1,0.2c0,0-0.1,0-0.2,0c0,0,0,0,0.1,0c0,0,0,0,0,0c0,0,0,0-0.1-0.1c0,0-0.1,0-0.1-0.1
		c0-0.1-0.1-0.2-0.3-0.2c-0.3,0-0.5,0-0.8-0.1c0-0.1-0.1-0.1-0.2-0.1c-0.1,0-0.3,0-0.4-0.1c-0.1,0-0.1,0-0.2-0.1
		c0,0,0.1-0.1,0.1-0.1c0.1-0.1,0.3-0.2,0.4-0.3c0.3,0,0.4,0.1,0.7,0.3c0.1,0,0.1,0,0.2,0.1c0.1,0,0.1,0.1,0.2,0.1
		c0.3,0.1,0.6,0,0.8,0.1C220.8,67.1,220.8,67.1,220.7,67.2c0,0,0-0.1,0-0.1C220.7,67.1,220.7,67.1,220.7,67.2
		C220.7,67.2,220.7,67.2,220.7,67.2 M218.5,67.7c-0.1,0-0.1-0.1-0.2-0.2c0,0,0,0-0.1,0c0,0,0,0-0.1,0c-0.1,0-0.2,0-0.3-0.1
		c0,0-0.1,0-0.1,0c0,0-0.1,0-0.1,0c-0.1,0-0.3,0-0.4,0c-0.2,0-0.4,0-0.6-0.1c-0.1,0-0.2,0-0.3-0.1c0,0-0.1,0-0.1,0
		c-0.1,0-0.1,0-0.2,0c0,0-0.1,0-0.1,0c0,0-0.1-0.1-0.1,0c0,0,0,0.1,0,0.1c0,0,0.1,0.1,0.1,0.1c0.1,0,0.1,0,0.1,0
		c0.2,0,0.4,0,0.5,0.1c0.4,0.1,0.9,0,1.2,0.1c0.1,0,0.1,0,0.2,0c0.2,0.1,0.3,0.1,0.4,0.2c0.1,0.1,0.1,0.2,0.3,0.2
		c0.1,0,0.2,0,0.2-0.1C218.7,67.7,218.5,67.7,218.5,67.7 M214.4,57.3C214.5,57.4,214.5,57.3,214.4,57.3c0.1,0,0.2,0,0.2,0
		c0.1,0,0-0.2,0-0.3c0,0,0-0.1,0-0.1c0,0,0.2,0.1,0.3,0c0,0,0,0,0.1,0c0,0,0,0,0,0c0,0,0,0,0,0c0,0,0,0-0.1,0
		c-0.1,0-0.1-0.1-0.2-0.1c-0.1,0-0.1,0-0.1,0c0-0.1,0.3-0.2,0.3-0.1c0,0,0-0.1-0.1-0.1c-0.1-0.1-0.3,0-0.3,0c0,0,0,0.3,0,0.3
		c0,0,0,0.1,0,0.1c0,0,0,0.1-0.1,0.1C214.5,57.3,214.4,57.3,214.4,57.3 M214.9,56.9C214.9,56.9,214.9,56.9,214.9,56.9L214.9,56.9
		C214.9,56.9,214.9,56.9,214.9,56.9C215,56.9,215,56.9,214.9,56.9C215,56.9,214.9,57,214.9,56.9C214.9,57,214.9,57,214.9,56.9
		C214.9,56.9,214.9,56.9,214.9,56.9 M214.8,56.9C214.8,56.9,214.8,56.9,214.8,56.9C214.8,57,214.8,57,214.8,56.9
		c-0.1,0.1-0.1,0-0.1,0S214.7,56.9,214.8,56.9 M214.1,57c0,0,0.1,0,0.1,0c0.2,0,0.2-0.1,0.2-0.1c0-0.1-0.1-0.2-0.2-0.2
		c0,0-0.1,0-0.1,0c0,0-0.1,0.1-0.1,0.1c0.1,0,0.1-0.1,0.3-0.1c0.1,0,0.1,0.1,0.1,0.1c0,0,0,0-0.1,0C214.2,56.8,214.1,56.9,214.1,57
		C214,56.9,214,56.9,214.1,57L214.1,57C214,57,214,57,214.1,57 M214.3,56.9C214.3,56.9,214.3,56.9,214.3,56.9
		C214.4,56.9,214.3,57,214.3,56.9C214.3,57,214.3,57,214.3,56.9C214.3,56.9,214.3,56.9,214.3,56.9 M214.2,56.9
		C214.2,56.9,214.2,56.9,214.2,56.9C214.2,57,214.2,57,214.2,56.9c-0.1,0.1-0.1,0-0.1,0S214.1,56.9,214.2,56.9">
  </path>
  <polygon class="st5" points="214.5,7.3 208.2,52.1 214.5,49 	">
  </polygon>
  <polygon class="st5" points="201,58.3 176.5,50.8 202.4,64.8 	">
  </polygon>
  <polygon class="st5" points="252.6,50.8 223.1,53.8 228.1,58.3 	">
  </polygon>
  <polygon class="st5" points="223,73.2 238.6,93 225.9,67.3 	">
  </polygon>
  <polygon class="st5" points="190.5,93 213.1,74.2 206,73.2 	">
  </polygon>
  <polygon class="st5" points="215.4,73.7 222.6,72.7 225.5,66.7 	">
  </polygon>
  <polygon class="st5" points="203.5,66.7 206.4,72.7 213.6,73.7 	">
  </polygon>
  <polygon class="st5" points="206.7,53.9 201.6,58.5 203,65.1 	">
  </polygon>
  <polygon class="st5" points="222.3,53.9 227.5,58.5 226,65.1 	">
  </polygon>
  <polygon class="st5" points="221,52.9 214.5,49.7 208.1,52.9 	">
  </polygon>
 </g>
</svg>